/* XPM */
static char *MDAwMQ__[] = {
/* columns rows colors chars-per-pixel */
"40 40 215 2 ",
"   c #3F3D3C",
".  c #413F3E",
"X  c #434241",
"o  c #454544",
"O  c #464544",
"+  c #484746",
"@  c #484847",
"#  c #494847",
"$  c #4A4948",
"%  c #4B4A49",
"&  c #4C4B4A",
"*  c #4C4C4B",
"=  c #4D4C4B",
"-  c #4E4D4C",
";  c #4F4E4D",
":  c #4F4E4E",
">  c #504E4D",
",  c #504F4E",
"<  c #504F4F",
"1  c #50504F",
"2  c #51504F",
"3  c #515150",
"4  c #525150",
"5  c #525151",
"6  c #525251",
"7  c #535251",
"8  c #535252",
"9  c #535352",
"0  c #545252",
"q  c #545352",
"w  c #545353",
"e  c #555453",
"r  c #555454",
"t  c #555554",
"y  c #555555",
"u  c #565554",
"i  c #565555",
"p  c #565655",
"a  c #575655",
"s  c #575756",
"d  c gray34",
"f  c #585756",
"g  c #585757",
"h  c #585857",
"j  c #595858",
"k  c #595958",
"l  c gray35",
"z  c #5A5958",
"x  c #5A5959",
"c  c #5A5A59",
"v  c #5B5A59",
"b  c #5A5A5A",
"n  c #5B5A5A",
"m  c #5B5B5A",
"M  c #5B5B5B",
"N  c #5C5A5A",
"B  c #5C5B5A",
"V  c #5C5B5B",
"C  c #5D5B5B",
"Z  c #5C5C5B",
"A  c #5D5C5B",
"S  c gray36",
"D  c #5D5D5C",
"F  c #5D5D5D",
"G  c #5E5D5C",
"H  c #5E5D5D",
"J  c #5E5E5D",
"K  c #5F5E5D",
"L  c #5F5F5D",
"P  c #5F5E5E",
"I  c #5F5F5E",
"U  c #605E5D",
"Y  c #605F5E",
"T  c #60605F",
"R  c #61605F",
"E  c #606060",
"W  c #616060",
"Q  c #616160",
"!  c gray38",
"~  c #626160",
"^  c #626161",
"/  c #626261",
"(  c #626262",
")  c #636262",
"_  c #636362",
"`  c gray39",
"'  c #646362",
"]  c #646363",
"[  c #646463",
"{  c #656463",
"}  c #646464",
"|  c #656464",
" . c #656564",
".. c #666564",
"X. c #666565",
"o. c #666665",
"O. c #676665",
"+. c #676666",
"@. c #676766",
"#. c #676767",
"$. c #686766",
"%. c #696766",
"&. c #686866",
"*. c #686867",
"=. c #696867",
"-. c #696868",
";. c #696968",
":. c #6A6968",
">. c #6A6969",
",. c #6A6A69",
"<. c #6B6A69",
"1. c #6A6A6A",
"2. c #6B6A6A",
"3. c #6B6B6A",
"4. c gray42",
"5. c #6C6B6A",
"6. c #6C6B6B",
"7. c #6C6C6B",
"8. c #6D6C6B",
"9. c #6C6C6C",
"0. c #6D6C6C",
"q. c #6D6D6C",
"w. c #6D6D6D",
"e. c #6E6D6C",
"r. c #6E6D6D",
"t. c #6E6E6D",
"y. c #6F6E6D",
"u. c #6F6E6E",
"i. c #6E6F6E",
"p. c #6F6F6F",
"a. c #706F6F",
"s. c #70706F",
"d. c #71706F",
"f. c gray44",
"g. c #717070",
"h. c #717170",
"j. c #717171",
"k. c #727170",
"l. c #727171",
"z. c #727271",
"x. c #737271",
"c. c #737372",
"v. c #747372",
"b. c #747473",
"n. c #757473",
"m. c #757574",
"M. c gray46",
"N. c #767575",
"B. c #767675",
"V. c #777675",
"C. c #767676",
"Z. c #777676",
"A. c #777776",
"S. c #777777",
"D. c #787776",
"F. c #787777",
"G. c gray47",
"H. c #797878",
"J. c #797978",
"K. c #797979",
"L. c #7A7978",
"P. c #7A7979",
"I. c #7A7A79",
"U. c #7B7A79",
"Y. c #7B7A7A",
"T. c #7B7B7A",
"R. c #7C7B7A",
"E. c #7C7C7B",
"W. c #7D7C7B",
"Q. c #7C7C7C",
"!. c #7D7D7C",
"~. c #7E7E7D",
"^. c #7F7E7D",
"/. c #7E7E7E",
"(. c #7F7F7E",
"). c gray50",
"_. c #807F7E",
"`. c #807F7F",
"'. c #80807E",
"]. c #81807F",
"[. c #808080",
"{. c #818180",
"}. c #818181",
"|. c #828180",
" X c #828181",
".X c #828281",
"XX c #838281",
"oX c #838282",
"OX c #848381",
"+X c #848382",
"@X c #848383",
"#X c #858483",
"$X c #848484",
"%X c #858484",
"&X c #858584",
"*X c #868685",
"=X c #878685",
"-X c #878786",
";X c #888786",
":X c #898887",
">X c #898987",
",X c #888888",
"<X c #898989",
"1X c #8B8A8A",
"2X c #8C8B8A",
"3X c #8C8B8B",
"4X c #8D8C8C",
"5X c #8D8D8C",
"6X c #8D8D8D",
"7X c #8F8E8E",
"8X c #90908F",
"9X c #939292",
"0X c #959494",
"qX c #999998",
"wX c None",
/* pixels */
"wXwXwXwXwXwXwXwXwXwXwXwXwXwXwXwXwXwXwXwXwXwXwXwXwXwXwXwXwXwXwXwXwXwXwXwXwXwXwXwX",
"wXwXwXwXwXwXwXwXwXwXwXwXwXwXwXwXwXwXwXwXwXwXwXwXwXwXwXwXwXwXwXwXwXwXwXwXwXwXwXwX",
"wXwXwXwXwXwXwXwXwXwXwXwXwXwXwXwXwXwXwXwXwXwXwXwXwXwXwXwXwXwXwXwXwXwXwXwXwXwXwXwX",
"wXwXwXwXwXwXwXwXwXwXwXwXwXwXwXwXwXwXwXwXwXwXwXwXwXwXwXwXwXwXwXwXwXwXwXwXwXwXwXwX",
"wXwXwXwXwXwXwXwXwXwXwXwXwXwXwXwXwXwXwXwXwXwXwXwXwXwXwXwXwXwXwXwXwXwXwXwXwXwXwXwX",
"wXwXwXwXwXwXwXwXwXwXwXwXwXwXwXwXwXwXwXwXwXwXwXwXwXwXwXwXwXwXwXwXwXwXwXwXwXwXwXwX",
"wXwXwXwXwXwXwXwXwXwXwXwXwXwXwXwXwXwXwXwXwXwXwXwXwXwXwXwXwXwXwXwXwXwXwXwXwXwXwXwX",
"wXwXwXwXwXwXwXwXwXwXwXwXwXwXwXwXwXwXwXwXwXwXwXwXwXwXwXwXwXwXwXwXwXwXwXwXwXwXwXwX",
"wXwXwXwXwXwXwXwXwXwXwXwXwXwXwXwXwXwXwXwXwXwXwXwXwXwXwXwXwXwXwXwXwXwXwXwXwXwXwXwX",
"wXwXwXwXwXwXwXwXwXwXwXwXwXwXwXwX%Xn.i.$. .6.;.I.wXwXwXwXwXwXwXwXwXwXwXwXwXwXwXwX",
"wXwXwXwXwXwXwXwXwXwXwXwXwXwX3Xb.i.i.i.7.7.;.[ T ] Q.wXwXwXwXwXwXwXwXwXwXwXwXwXwX",
"wXwXwXwXwXwXwXwXwXwXwXwXwXI.6.m.%XXXm.%X3Xb.H.l. .g i.wXwXwXwXwXwXwXwXwXwXwXwXwX",
"wXwXwXwXwXwXwXwXwXwXwXwXI.a.Q.XXQ.R.8X0X4X3XH.;.i.i.r ;.wXwXwXwXwXwXwXwXwXwXwXwX",
"wXwXwXwXwXwXwXwXwXwXwXa.i.`.XX'.XX<XXX<XXXXXH.A.i.i.i.r  .wXwXwXwXwXwXwXwXwXwXwX",
"wXwXwXwXwXwXwXwXwXwXi.l.'.XXQ.<X8XXXXX#XXXD.a.D.m.i.W  .r i.wXwXwXwXwXwXwXwXwXwX",
"wXwXwXwXwXwXwXwXwXwX7.l.Q.Q.Q.'.XX:X`.R.R.R.Q.I.;.W W [ S V wXwXwXwXwXwXwXwXwXwX",
"wXwXwXwXwXwXwXwXwX .;.m.x.b.b.#X'.H.'.XXD.XXl.;.m. .v S S v W wXwXwXwXwXwXwXwXwX",
"wXwXwXwXwXwXwXwXwXS [ l.l.i._.W.d.XX`.'.XXW.=.] ;. .v S ;.S v wXwXwXwXwXwXwXwXwX",
"wXwXwXwXwXwXwXwXwXB W a.i.$.b.=Xa.R.:.x.x.U 6.d.x.$.g v W v d wXwXwXwXwXwXwXwXwX",
"wXwXwXwXwXwXwXwXwXB U ] ] T $.l.R.].W.a.$.m.R.;.i.6.g V W j S wXwXwXwXwXwXwXwXwX",
"wXwXwXwXwXwXwXwXwXB V W =.S g =.W.T B 6.H.=.$.D.i.r 9 v W v S wXwXwXwXwXwXwXwXwX",
"wXwXwXwXwXwXwXwXwXS B W  .h [ 6.6.U q T $.W [ =. .v r v S v ` wXwXwXwXwXwXwXwXwX",
"wXwXwXwXwXwXwXwXwXS v S h q S S ] =.[ =.7.b.H.i.i.V d v v S 4.wXwXwXwXwXwXwXwXwX",
"wXwXwXwXwXwXwXwXwXW [ q q r 9 - h B 2 r h q =.=.r q r d 2 l.p.wXwXwXwXwXwXwXwXwX",
"wXwXwXwXwXwXwXwXwXwXl.9 q g v 2 9 > q V T T h q V r B T q :XwXwXwXwXwXwXwXwXwXwX",
"wXwXwXwXwXwXwXwXwXwXi.a.X S v 2 9 h v S U a h q q h [ + XXQ.wXwXwXwXwXwXwXwXwXwX",
"wXwXwXwXwXwXwXwXwXwXwXm.T & S r 2 9 g 2 q > g q V U # 6.6XwXwXwXwXwXwXwXwXwXwXwX",
"wXwXwXwXwXwXwXwXwXwXwXwXXXT + v 9 9 - q > > q q q . 7.qXwXwXwXwXwXwXwXwXwXwXwXwX",
"wXwXwXwXwXwXwXwXwXwXwXwXwXQ.m.- o & r q q & # . % %X9XwXwXwXwXwXwXwXwXwXwXwXwXwX",
"wXwXwXwXwXwXwXwXwXwXwXwXwXwXI.XXb.S d & & 9 [ #XqX6XwXwXwXwXwXwXwXwXwXwXwXwXwXwX",
"wXwXwXwXwXwXwXwXwXwXwXwXwXwXwXwXI.Q.T.-X%X<X7X6XwXwXwXwXwXwXwXwXwXwXwXwXwXwXwXwX",
"wXwXwXwXwXwXwXwXwXwXwXwXwXwXwXwXwXwXwXwXwXwXwXwXwXwXwXwXwXwXwXwXwXwXwXwXwXwXwXwX",
"wXwXwXwXwXwXwXwXwXwXwXwXwXwXwXwXwXwXwXwXwXwXwXwXwXwXwXwXwXwXwXwXwXwXwXwXwXwXwXwX",
"wXwXwXwXwXwXwXwXwXwXwXwXwXwXwXwXwXwXwXwXwXwXwXwXwXwXwXwXwXwXwXwXwXwXwXwXwXwXwXwX",
"wXwXwXwXwXwXwXwXwXwXwXwXwXwXwXwXwXwXwXwXwXwXwXwXwXwXwXwXwXwXwXwXwXwXwXwXwXwXwXwX",
"wXwXwXwXwXwXwXwXwXwXwXwXwXwXwXwXwXwXwXwXwXwXwXwXwXwXwXwXwXwXwXwXwXwXwXwXwXwXwXwX",
"wXwXwXwXwXwXwXwXwXwXwXwXwXwXwXwXwXwXwXwXwXwXwXwXwXwXwXwXwXwXwXwXwXwXwXwXwXwXwXwX",
"wXwXwXwXwXwXwXwXwXwXwXwXwXwXwXwXwXwXwXwXwXwXwXwXwXwXwXwXwXwXwXwXwXwXwXwXwXwXwXwX",
"wXwXwXwXwXwXwXwXwXwXwXwXwXwXwXwXwXwXwXwXwXwXwXwXwXwXwXwXwXwXwXwXwXwXwXwXwXwXwXwX",
"wXwXwXwXwXwXwXwXwXwXwXwXwXwXwXwXwXwXwXwXwXwXwXwXwXwXwXwXwXwXwXwXwXwXwXwXwXwXwXwX"
};
