/* XPM */
static char *MDAwMg__[] = {
/* columns rows colors chars-per-pixel */
"40 40 131 2 ",
"   c black",
".  c #292827",
"X  c #2E2D2C",
"o  c #302E2D",
"O  c #363635",
"+  c #393837",
"@  c #393939",
"#  c #3A3A39",
"$  c #3B3A3A",
"%  c #3B3B3A",
"&  c gray23",
"*  c #3C3B3B",
"=  c #3C3C3B",
"-  c #3D3C3B",
";  c #3C3C3C",
":  c #3D3C3C",
">  c #3D3D3C",
",  c gray24",
"<  c #3E3D3C",
"1  c #3E3D3D",
"2  c #3E3E3D",
"3  c #3F3E3D",
"4  c #3F3E3E",
"5  c #3F3F3E",
"6  c #3F3F3F",
"7  c #403E3E",
"8  c #403F3E",
"9  c #403F3F",
"0  c #40403F",
"q  c gray25",
"w  c #414040",
"e  c #414140",
"r  c #414141",
"t  c #424040",
"y  c #424140",
"u  c #424141",
"i  c #424241",
"p  c #434241",
"a  c gray26",
"s  c #434242",
"d  c #434342",
"f  c #434343",
"g  c #444342",
"h  c #444343",
"j  c #454343",
"k  c #444443",
"l  c #454443",
"z  c #444344",
"x  c #454444",
"c  c #454544",
"v  c gray27",
"b  c #464544",
"n  c #464545",
"m  c #464645",
"M  c #464646",
"N  c #474646",
"B  c #474746",
"V  c gray28",
"C  c #484747",
"Z  c #484847",
"A  c #494848",
"S  c #494948",
"D  c #494949",
"F  c #4A4948",
"G  c #4A4949",
"H  c gray29",
"J  c #4B4A4A",
"K  c #4B4B4A",
"L  c #4B4B4B",
"P  c #4C4B4A",
"I  c #4C4B4B",
"U  c #4C4C4B",
"Y  c #4D4C4B",
"T  c #4C4C4C",
"R  c #4D4C4C",
"E  c #4D4D4C",
"W  c #4E4D4D",
"Q  c #4F4E4D",
"!  c #4F4E4E",
"~  c #4F4F4E",
"^  c #504F4E",
"/  c #504F4F",
"(  c #50504F",
")  c #51504F",
"_  c #505050",
"`  c #515150",
"'  c #515151",
"]  c #525151",
"[  c gray32",
"{  c #535353",
"}  c #545353",
"|  c #545453",
" . c #555453",
".. c #555555",
"X. c #565656",
"o. c #575756",
"O. c #585756",
"+. c gray35",
"@. c #5A5858",
"#. c #5C5C5B",
"$. c #5D5D5D",
"%. c gray37",
"&. c #60605F",
"*. c #646362",
"=. c #646363",
"-. c #676666",
";. c #6F6E6E",
":. c gray44",
">. c #717170",
",. c #737372",
"<. c #797878",
"1. c #7C7B7A",
"2. c #7D7C7C",
"3. c #7E7D7D",
"4. c gray51",
"5. c #838383",
"6. c #848282",
"7. c #848483",
"8. c gray52",
"9. c #898987",
"0. c #939393",
"q. c #9B9B9B",
"w. c #A1A1A0",
"e. c #A2A2A2",
"r. c #B1B0B0",
"t. c #B3B3B2",
"y. c LightGray",
"u. c #DFDFDF",
"i. c gray94",
"p. c #FBFBFB",
"a. c None",
/* pixels */
"a.a.a.a.a.a.a.a.a.a.a.a.a.a.a.a.a.a.a.a.a.a.a.a.a.a.a.a.a.a.a.a.a.a.a.a.a.a.a.a.",
"a.a.a.a.a.a.a.a.a.a.a.a.a.a.a.a.a.a.a.a.a.a.a.a.a.a.a.a.a.a.a.a.a.a.a.a.a.a.a.a.",
"a.a.a.a.a.a.a.a.a.a.a.a.a.a.a.a.a.a.a.a.a.a.a.a.a.a.a.a.a.a.a.a.a.a.a.a.a.a.a.a.",
"a.a.a.a.a.a.a.a.a.a.a.a.a.a.a.a.a.a.a.a.a.a.a.a.a.a.a.a.a.a.a.a.a.a.a.a.a.a.a.a.",
"a.a.a.a.a.a.a.a.a.a.a.a.a.a.a.a.a.a.a.a.a.a.a.a.a.a.a.a.a.a.a.a.a.a.a.a.a.a.a.a.",
"a.a.a.a.a.a.a.a.a.a.a.a.a.a.a.a.a.a.a.a.a.a.a.a.a.a.a.a.a.a.a.a.a.a.a.a.a.a.a.a.",
"a.a.a.a.a.a.a.a.a.a.a.a.a.a.a.a.a.a.a.a.a.a.a.a.a.a.a.a.a.a.a.a.a.a.a.a.a.a.a.a.",
"a.a.a.a.a.a.a.a.a.a.a.a.a.a.a.a.a.a.a.a.a.a.a.a.a.a.a.a.a.a.a.a.a.a.a.a.a.a.a.a.",
"a.a.a.a.a.a.a.a.a.a.a.a.a.a.a.a.a.a.a.a.a.a.a.a.a.a.a.a.a.a.a.a.a.a.a.a.a.a.a.a.",
"a.a.a.a.a.a.a.a.a.a.a.a.a.a.a.a.9.O.Q K A %.a.a.a.a.a.a.a.a.a.a.a.a.a.a.a.a.a.a.",
"a.a.a.a.a.a.a.a.a.a.a.a.a.a.p.t.% q m r 5 % j a.a.a.a.a.a.a.a.a.a.a.a.a.a.a.a.a.",
"a.a.a.a.a.a.a.a.a.a.a.a.a.a.u.  P } ~ ) ~ A 6 6 a.a.a.a.a.a.a.a.a.a.a.a.a.a.a.a.",
"a.a.a.a.a.a.a.a.a.a.a.a.a.i.6 A o._ Q o.) P m r 6 a.a.a.a.a.a.a.a.a.a.a.a.a.a.a.",
"a.a.a.a.a.a.a.a.a.a.a.a.y.q.. +.{ o.} [ ) C m m r r a.a.a.a.a.a.a.a.a.a.a.a.a.a.",
"a.a.a.a.a.a.a.a.a.a.a.a.t.o.Q o.} o.[ ^ ) k j m r 6 a.a.a.a.a.a.a.a.a.a.a.a.a.a.",
"a.a.a.a.a.a.a.a.a.a.a.e.e.= | [ / ^ Q R A k r r k r a.a.a.a.a.a.a.a.a.a.a.a.a.a.",
"a.a.a.a.a.a.a.a.a.a.a.0.2.6 } / ^ [ P P A k 8 j r m r a.a.a.a.a.a.a.a.a.a.a.a.a.",
"a.a.a.a.a.a.a.a.a.a.a.7.-.r [ ^ [ A Q P Y r 0 r j m r a.a.a.a.a.a.a.a.a.a.a.a.a.",
"a.a.a.a.a.a.a.a.a.a.a.:.o.m Q P P ) Z A j 8 j r r m j a.a.a.a.a.a.a.a.a.a.a.a.a.",
"a.a.a.a.a.a.a.a.a.a.a.%.A m A P r A A Q m k j = k k C a.a.a.a.a.a.a.a.a.a.a.a.a.",
"a.a.a.a.a.a.a.a.a.a.a.[ C m A Z r m j * k j k j j m Q a.a.a.a.a.a.a.a.a.a.a.a.a.",
"a.a.a.a.a.a.a.a.a.a.a.A C k C m k r j r 0 A m 0 k m &.a.a.a.a.a.a.a.a.a.a.a.a.a.",
"a.a.a.a.a.a.a.a.a.a.a.z m k k r 8 = 8 8 k m m j r Q ,.a.a.a.a.a.a.a.a.a.a.a.a.a.",
"a.a.a.a.a.a.a.a.a.a.a.r m k 0 j 8 6 * * 6 0 j k % *.6.a.a.a.a.a.a.a.a.a.a.a.a.a.",
"a.a.a.a.a.a.a.a.a.a.a.8 m r 8 0 0 8 6 0 C k 0 m O 1.a.a.a.a.a.a.a.a.a.a.a.a.a.a.",
"a.a.a.a.a.a.a.a.a.a.a.a.0 z 6 8 0 6 6 8 r 8 j j r 5.a.a.a.a.a.a.a.a.a.a.a.a.a.a.",
"a.a.a.a.a.a.a.a.a.a.a.a.% r 8 * = r 8 8 8 6 m o :.7.a.a.a.a.a.a.a.a.a.a.a.a.a.a.",
"a.a.a.a.a.a.a.a.a.a.a.a.a.6 r 6 = 8 6 8 8 0 + m 2.a.a.a.a.a.a.a.a.a.a.a.a.a.a.a.",
"a.a.a.a.a.a.a.a.a.a.a.a.a.6 m k = = 6 6 : X 6 2.a.a.a.a.a.a.a.a.a.a.a.a.a.a.a.a.",
"a.a.a.a.a.a.a.a.a.a.a.a.a.a.% k Y m 6 + 8 *.<.a.a.a.a.a.a.a.a.a.a.a.a.a.a.a.a.a.",
"a.a.a.a.a.a.a.a.a.a.a.a.a.a.a.a.q Y #.>.8.4.a.a.a.a.a.a.a.a.a.a.a.a.a.a.a.a.a.a.",
"a.a.a.a.a.a.a.a.a.a.a.a.a.a.a.a.a.a.a.a.a.a.a.a.a.a.a.a.a.a.a.a.a.a.a.a.a.a.a.a.",
"a.a.a.a.a.a.a.a.a.a.a.a.a.a.a.a.a.a.a.a.a.a.a.a.a.a.a.a.a.a.a.a.a.a.a.a.a.a.a.a.",
"a.a.a.a.a.a.a.a.a.a.a.a.a.a.a.a.a.a.a.a.a.a.a.a.a.a.a.a.a.a.a.a.a.a.a.a.a.a.a.a.",
"a.a.a.a.a.a.a.a.a.a.a.a.a.a.a.a.a.a.a.a.a.a.a.a.a.a.a.a.a.a.a.a.a.a.a.a.a.a.a.a.",
"a.a.a.a.a.a.a.a.a.a.a.a.a.a.a.a.a.a.a.a.a.a.a.a.a.a.a.a.a.a.a.a.a.a.a.a.a.a.a.a.",
"a.a.a.a.a.a.a.a.a.a.a.a.a.a.a.a.a.a.a.a.a.a.a.a.a.a.a.a.a.a.a.a.a.a.a.a.a.a.a.a.",
"a.a.a.a.a.a.a.a.a.a.a.a.a.a.a.a.a.a.a.a.a.a.a.a.a.a.a.a.a.a.a.a.a.a.a.a.a.a.a.a.",
"a.a.a.a.a.a.a.a.a.a.a.a.a.a.a.a.a.a.a.a.a.a.a.a.a.a.a.a.a.a.a.a.a.a.a.a.a.a.a.a.",
"a.a.a.a.a.a.a.a.a.a.a.a.a.a.a.a.a.a.a.a.a.a.a.a.a.a.a.a.a.a.a.a.a.a.a.a.a.a.a.a."
};
