/* XPM */
static char *MDAwMw__[] = {
/* columns rows colors chars-per-pixel */
"40 40 112 2 ",
"   c #2C2B2B",
".  c #30302F",
"X  c #373635",
"o  c #383837",
"O  c gray23",
"+  c #3C3B3B",
"@  c #3C3C3C",
"#  c #3D3D3C",
"$  c #3E3D3D",
"%  c #3E3E3C",
"&  c #3E3E3D",
"*  c #3F3E3D",
"=  c #3E3E3E",
"-  c #3F3E3E",
";  c #3F3F3E",
":  c #3F3F3F",
">  c #403F3F",
",  c #40403F",
"<  c gray25",
"1  c #414040",
"2  c #414140",
"3  c #414141",
"4  c #424141",
"5  c #424241",
"6  c #434241",
"7  c gray26",
"8  c #434242",
"9  c #434342",
"0  c #434343",
"q  c #444343",
"w  c #444443",
"e  c #444444",
"r  c #454544",
"t  c gray27",
"y  c #464545",
"u  c #464645",
"i  c #474645",
"p  c #474646",
"a  c #474746",
"s  c gray28",
"d  c #484746",
"f  c #484747",
"g  c #484847",
"h  c #494847",
"j  c #484848",
"k  c #494848",
"l  c #494948",
"z  c #494949",
"x  c #4A4949",
"c  c #4A4A49",
"v  c #4B4A49",
"b  c #4B4B4A",
"n  c #4B4B4B",
"m  c #4C4B4A",
"M  c #4C4B4B",
"N  c #4C4C4B",
"B  c #4D4C4C",
"V  c #4D4D4C",
"C  c #4E4D4E",
"Z  c gray31",
"A  c #504F4F",
"S  c #50504F",
"D  c #505050",
"F  c #515050",
"G  c #525150",
"H  c #525251",
"J  c gray32",
"K  c #545352",
"L  c #545453",
"P  c gray33",
"I  c #575756",
"U  c #595858",
"Y  c #595958",
"T  c gray35",
"R  c #5A5959",
"E  c #5B5B5A",
"W  c #5D5D5C",
"Q  c #626262",
"!  c #636362",
"~  c gray43",
"^  c #6F6F6E",
"/  c #706F6E",
"(  c #737372",
")  c #747372",
"_  c #747473",
"`  c #7B7B7B",
"'  c #7D7C7B",
"]  c #7E7D7D",
"[  c #818080",
"{  c #828080",
"}  c gray55",
"|  c #909090",
" . c gray58",
".. c #979797",
"X. c #9A9A99",
"o. c gray67",
"O. c #AFAFAF",
"+. c #B5B3B3",
"@. c #BBBBBB",
"#. c #BCBCBC",
"$. c #CDCDCD",
"%. c gray81",
"&. c #D3D3D2",
"*. c #DDDDDC",
"=. c #E8E8E7",
"-. c #E9E9E9",
";. c #EAEAEA",
":. c gray92",
">. c #ECECEC",
",. c gray98",
"<. c #FEFEFD",
"1. c None",
/* pixels */
"1.1.1.1.1.1.1.1.1.1.1.1.1.1.1.1.1.1.1.1.1.1.1.1.1.1.1.1.1.1.1.1.1.1.1.1.1.1.1.1.",
"1.1.1.1.1.1.1.1.1.1.1.1.1.1.1.1.1.1.1.1.1.1.1.1.1.1.1.1.1.1.1.1.1.1.1.1.1.1.1.1.",
"1.1.1.1.1.1.1.1.1.1.1.1.1.1.1.1.1.1.1.1.1.1.1.1.1.1.1.1.1.1.1.1.1.1.1.1.1.1.1.1.",
"1.1.1.1.1.1.1.1.1.1.1.1.1.1.1.1.1.1.1.1.1.1.1.1.1.1.1.1.1.1.1.1.1.1.1.1.1.1.1.1.",
"1.1.1.1.1.1.1.1.1.1.1.1.1.1.1.1.1.1.1.1.1.1.1.1.1.1.1.1.1.1.1.1.1.1.1.1.1.1.1.1.",
"1.1.1.1.1.1.1.1.1.1.1.1.1.1.1.1.1.1.1.1.1.1.1.1.1.1.1.1.1.1.1.1.1.1.1.1.1.1.1.1.",
"1.1.1.1.1.1.1.1.1.1.1.1.1.1.1.1.1.1.1.1.1.1.1.1.1.1.1.1.1.1.1.1.1.1.1.1.1.1.1.1.",
"1.1.1.1.1.1.1.1.1.1.1.1.1.1.1.1.1.1.1.1.1.1.1.1.1.1.1.1.1.1.1.1.1.1.1.1.1.1.1.1.",
"1.1.1.1.1.1.1.1.1.1.1.1.1.1.1.1.1.1.1.1.1.1.1.1.1.1.1.1.1.1.1.1.1.1.1.1.1.1.1.1.",
"1.1.1.1.1.1.1.1.1.1.1.1.1.1.1.1.1.} ..~ < 1.1.1.1.1.1.1.1.1.1.1.1.1.1.1.1.1.1.1.",
"1.1.1.1.1.1.1.1.1.1.1.1.1.1.1.1.1.@.^ 9 V ; 1.1.1.1.1.1.1.1.1.1.1.1.1.1.1.1.1.1.",
"1.1.1.1.1.1.1.1.1.1.1.1.1.1.1.1.&.#.D R P a 1.1.1.1.1.1.1.1.1.1.1.1.1.1.1.1.1.1.",
"1.1.1.1.1.1.1.1.1.1.1.1.1.1.1.1.=.O.# E S N @ 1.1.1.1.1.1.1.1.1.1.1.1.1.1.1.1.1.",
"1.1.1.1.1.1.1.1.1.1.1.1.1.1.1.1.<. .< W V k ; 1.1.1.1.1.1.1.1.1.1.1.1.1.1.1.1.1.",
"1.1.1.1.1.1.1.1.1.1.1.1.1.1.1.;.,.( V R k g < 1.1.1.1.1.1.1.1.1.1.1.1.1.1.1.1.1.",
"1.1.1.1.1.1.1.1.1.1.1.1.1.1.1.;.>.I Z K k w q 1.1.1.1.1.1.1.1.1.1.1.1.1.1.1.1.1.",
"1.1.1.1.1.1.1.1.1.1.1.1.1.1.1.:.*.# D K m < f 1.1.1.1.1.1.1.1.1.1.1.1.1.1.1.1.1.",
"1.1.1.1.1.1.1.1.1.1.1.1.1.1.1.:.$.  D S k < k 1.1.1.1.1.1.1.1.1.1.1.1.1.1.1.1.1.",
"1.1.1.1.1.1.1.1.1.1.1.1.1.1.1.%.o.. V N g < k 1.1.1.1.1.1.1.1.1.1.1.1.1.1.1.1.1.",
"1.1.1.1.1.1.1.1.1.1.1.1.1.1.1.| ` > g k m < k 1.1.1.1.1.1.1.1.1.1.1.1.1.1.1.1.1.",
"1.1.1.1.1.1.1.1.1.1.1.1.1.1.1.Q R q q > q a m 1.1.1.1.1.1.1.1.1.1.1.1.1.1.1.1.1.",
"1.1.1.1.1.1.1.1.1.1.1.1.1.1.1.D V q a < f g P 1.1.1.1.1.1.1.1.1.1.1.1.1.1.1.1.1.",
"1.1.1.1.1.1.1.1.1.1.1.1.1.1.1.a g a > # k a Q 1.1.1.1.1.1.1.1.1.1.1.1.1.1.1.1.1.",
"1.1.1.1.1.1.1.1.1.1.1.1.1.1.1.w a < , # f q ) 1.1.1.1.1.1.1.1.1.1.1.1.1.1.1.1.1.",
"1.1.1.1.1.1.1.1.1.1.1.1.1.1.1.< w q w , N < ' 1.1.1.1.1.1.1.1.1.1.1.1.1.1.1.1.1.",
"1.1.1.1.1.1.1.1.1.1.1.1.1.1.1.# < , , < a f ] 1.1.1.1.1.1.1.1.1.1.1.1.1.1.1.1.1.",
"1.1.1.1.1.1.1.1.1.1.1.1.1.1.1.1.> > > < q A { 1.1.1.1.1.1.1.1.1.1.1.1.1.1.1.1.1.",
"1.1.1.1.1.1.1.1.1.1.1.1.1.1.1.1.o O , , > U { 1.1.1.1.1.1.1.1.1.1.1.1.1.1.1.1.1.",
"1.1.1.1.1.1.1.1.1.1.1.1.1.1.1.1.@ , < g X X.1.1.1.1.1.1.1.1.1.1.1.1.1.1.1.1.1.1.",
"1.1.1.1.1.1.1.1.1.1.1.1.1.1.1.1.1.< g @ / +.1.1.1.1.1.1.1.1.1.1.1.1.1.1.1.1.1.1.",
"1.1.1.1.1.1.1.1.1.1.1.1.1.1.1.1.1.> a N _ 1.1.1.1.1.1.1.1.1.1.1.1.1.1.1.1.1.1.1.",
"1.1.1.1.1.1.1.1.1.1.1.1.1.1.1.1.1.1.1.1.1.1.1.1.1.1.1.1.1.1.1.1.1.1.1.1.1.1.1.1.",
"1.1.1.1.1.1.1.1.1.1.1.1.1.1.1.1.1.1.1.1.1.1.1.1.1.1.1.1.1.1.1.1.1.1.1.1.1.1.1.1.",
"1.1.1.1.1.1.1.1.1.1.1.1.1.1.1.1.1.1.1.1.1.1.1.1.1.1.1.1.1.1.1.1.1.1.1.1.1.1.1.1.",
"1.1.1.1.1.1.1.1.1.1.1.1.1.1.1.1.1.1.1.1.1.1.1.1.1.1.1.1.1.1.1.1.1.1.1.1.1.1.1.1.",
"1.1.1.1.1.1.1.1.1.1.1.1.1.1.1.1.1.1.1.1.1.1.1.1.1.1.1.1.1.1.1.1.1.1.1.1.1.1.1.1.",
"1.1.1.1.1.1.1.1.1.1.1.1.1.1.1.1.1.1.1.1.1.1.1.1.1.1.1.1.1.1.1.1.1.1.1.1.1.1.1.1.",
"1.1.1.1.1.1.1.1.1.1.1.1.1.1.1.1.1.1.1.1.1.1.1.1.1.1.1.1.1.1.1.1.1.1.1.1.1.1.1.1.",
"1.1.1.1.1.1.1.1.1.1.1.1.1.1.1.1.1.1.1.1.1.1.1.1.1.1.1.1.1.1.1.1.1.1.1.1.1.1.1.1.",
"1.1.1.1.1.1.1.1.1.1.1.1.1.1.1.1.1.1.1.1.1.1.1.1.1.1.1.1.1.1.1.1.1.1.1.1.1.1.1.1."
};
