/* XPM */
static char *MDAwNA__[] = {
/* columns rows colors chars-per-pixel */
"40 40 74 1 ",
"  c #232322",
". c gray18",
"X c #2F2F2F",
"o c #343434",
"O c gray21",
"+ c #3A3939",
"@ c gray23",
"# c #3C3B3B",
"$ c #3E3D3E",
"% c #3F3F3F",
"& c #414140",
"* c #414141",
"= c #424240",
"- c #444444",
"; c gray28",
": c #494848",
"> c #494948",
", c #4B4A4A",
"< c #4B4B4B",
"1 c #4C4C4A",
"2 c #4D4D4B",
"3 c #514F4F",
"4 c #505050",
"5 c #515151",
"6 c gray32",
"7 c #545453",
"8 c #565655",
"9 c #585757",
"0 c #5A5A59",
"q c #5A5A5A",
"w c #5B5A5A",
"e c #5C5C5B",
"r c #5D5C5C",
"t c #5F5F5F",
"y c #60605F",
"u c #606060",
"i c #616160",
"p c #666565",
"a c #686767",
"s c #686868",
"d c #6D6C6C",
"f c #6D6C6D",
"g c #71706F",
"h c #717171",
"j c #727271",
"k c #737271",
"l c #797775",
"z c gray47",
"x c #7B7B7A",
"c c #7C7C7C",
"v c #8B8B8B",
"b c #8F8F8E",
"n c #949292",
"m c #959595",
"M c #999998",
"N c gray60",
"B c #9A9999",
"V c #9A9A99",
"C c #9F9E9E",
"Z c #A0A09E",
"A c #A0A09F",
"S c #A5A5A3",
"D c #ACABAB",
"F c #B4B4B4",
"G c #B9B9B9",
"H c gray74",
"J c #BEBEBD",
"K c #C0C0BF",
"L c #C1C1C0",
"P c #D5D5D5",
"I c gray85",
"U c #E1E0E0",
"Y c #E1E1E1",
"T c None",
/* pixels */
"TTTTTTTTTTTTTTTTTTTTTTTTTTTTTTTTTTTTTTTT",
"TTTTTTTTTTTTTTTTTTTTTTTTTTTTTTTTTTTTTTTT",
"TTTTTTTTTTTTTTTTTTTTTTTTTTTTTTTTTTTTTTTT",
"TTTTTTTTTTTTTTTTTTTTTTTTTTTTTTTTTTTTTTTT",
"TTTTTTTTTTTTTTTTTTTTTTTTTTTTTTTTTTTTTTTT",
"TTTTTTTTTTTTTTTTTTTTTTTTTTTTTTTTTTTTTTTT",
"TTTTTTTTTTTTTTTTTTTTTTTTTTTTTTTTTTTTTTTT",
"TTTTTTTTTTTTTTTTTTTTTTTTTTTTTTTTTTTTTTTT",
"TTTTTTTTTTTTTTTTTTTTTTTTTTTTTTTTTTTTTTTT",
"TTTTTTTTTTTTTTTTTTTcCTTTTTTTTTTTTTTTTTTT",
"TTTTTTTTTTTTTTTTTTThMMTTTTTTTTTTTTTTTTTT",
"TTTTTTTTTTTTTTTTTTTsmSTTTTTTTTTTTTTTTTTT",
"TTTTTTTTTTTTTTTTTTTpFJTTTTTTTTTTTTTTTTTT",
"TTTTTTTTTTTTTTTTTTTuLPTTTTTTTTTTTTTTTTTT",
"TTTTTTTTTTTTTTTTTTTwLUTTTTTTTTTTTTTTTTTT",
"TTTTTTTTTTTTTTTTTT59GUTTTTTTTTTTTTTTTTTT",
"TTTTTTTTTTTTTTTTTT27DITTTTTTTTTTTTTTTTTT",
"TTTTTTTTTTTTTTTTTT28mJTTTTTTTTTTTTTTTTTT",
"TTTTTTTTTTTTTTTTTT,wzbTTTTTTTTTTTTTTTTTT",
"TTTTTTTTTTTTTTTTTT3wudTTTTTTTTTTTTTTTTTT",
"TTTTTTTTTTTTTTTTTTwe5eTTTTTTTTTTTTTTTTTT",
"TTTTTTTTTTTTTTTTTTlu>5TTTTTTTTTTTTTTTTTT",
"TTTTTTTTTTTTTTTTTTna&,TTTTTTTTTTTTTTTTTT",
"TTTTTTTTTTTTTTTTTTZd$;TTTTTTTTTTTTTTTTTT",
"TTTTTTTTTTTTTTTTTTSg+;TTTTTTTTTTTTTTTTTT",
"TTTTTTTTTTTTTTTTTTThO&TTTTTTTTTTTTTTTTTT",
"TTTTTTTTTTTTTTTTTTTho@TTTTTTTTTTTTTTTTTT",
"TTTTTTTTTTTTTTTTTTTxX+TTTTTTTTTTTTTTTTTT",
"TTTTTTTTTTTTTTTTTTTM $TTTTTTTTTTTTTTTTTT",
"TTTTTTTTTTTTTTTTTTTbX&TTTTTTTTTTTTTTTTTT",
"TTTTTTTTTTTTTTTTTTTu,TTTTTTTTTTTTTTTTTTT",
"TTTTTTTTTTTTTTTTTTTTTTTTTTTTTTTTTTTTTTTT",
"TTTTTTTTTTTTTTTTTTTTTTTTTTTTTTTTTTTTTTTT",
"TTTTTTTTTTTTTTTTTTTTTTTTTTTTTTTTTTTTTTTT",
"TTTTTTTTTTTTTTTTTTTTTTTTTTTTTTTTTTTTTTTT",
"TTTTTTTTTTTTTTTTTTTTTTTTTTTTTTTTTTTTTTTT",
"TTTTTTTTTTTTTTTTTTTTTTTTTTTTTTTTTTTTTTTT",
"TTTTTTTTTTTTTTTTTTTTTTTTTTTTTTTTTTTTTTTT",
"TTTTTTTTTTTTTTTTTTTTTTTTTTTTTTTTTTTTTTTT",
"TTTTTTTTTTTTTTTTTTTTTTTTTTTTTTTTTTTTTTTT"
};
