/* XPM */
static char *MDAwNQ__[] = {
/* columns rows colors chars-per-pixel */
"40 40 138 2 ",
"   c #343433",
".  c gray21",
"X  c #3C3C3B",
"o  c #3C3C3C",
"O  c gray24",
"+  c #3E3E3C",
"@  c #3E3E3D",
"#  c #3E3E3E",
"$  c #3F3E3E",
"%  c #3F3F3F",
"&  c #403F3E",
"*  c #403F3F",
"=  c #40403F",
"-  c #414040",
";  c #414140",
":  c #414041",
">  c #414141",
",  c #424141",
"<  c #424241",
"1  c #434241",
"2  c gray26",
"3  c #434242",
"4  c #434342",
"5  c #434343",
"6  c #444343",
"7  c #444443",
"8  c #444444",
"9  c #454444",
"0  c #454544",
"q  c #464545",
"w  c #464645",
"e  c #474645",
"r  c #464546",
"t  c #464646",
"y  c #474746",
"u  c gray28",
"i  c #484747",
"p  c #484847",
"a  c #494847",
"s  c #484848",
"d  c #494848",
"f  c #494948",
"g  c #494949",
"h  c #4A4949",
"j  c #4A4A49",
"k  c gray29",
"l  c #4B4B4A",
"z  c #4B4B4B",
"x  c #4C4B4B",
"c  c #4C4C4B",
"v  c #4D4C4B",
"b  c #4D4D4B",
"n  c #4C4C4C",
"m  c #4D4D4C",
"M  c gray30",
"N  c #4E4D4C",
"B  c #4E4D4D",
"V  c #4E4E4E",
"C  c #4F4E4E",
"Z  c #4F4F4E",
"A  c gray31",
"S  c #50504E",
"D  c #505050",
"F  c #515150",
"G  c #515151",
"H  c #525151",
"J  c #525251",
"K  c gray32",
"L  c #535252",
"P  c #535352",
"I  c #535353",
"U  c #545353",
"Y  c gray33",
"T  c #555555",
"R  c #565555",
"E  c #565655",
"W  c #565656",
"Q  c gray34",
"!  c #585757",
"~  c #585858",
"^  c gray35",
"/  c #5A5959",
"(  c #5A5A59",
")  c #5A5A5A",
"_  c #5B5A5A",
"`  c #5B5B5A",
"'  c #5B5B5B",
"]  c #5C5C5B",
"[  c #5D5C5B",
"{  c #5E5C5B",
"}  c gray36",
"|  c #5D5D5C",
" . c #5D5D5D",
".. c #5E5E5D",
"X. c #5F5E5E",
"o. c #5F5F5F",
"O. c #605F5F",
"+. c #606060",
"@. c #616160",
"#. c #626261",
"$. c #626262",
"%. c #636362",
"&. c gray39",
"*. c #646463",
"=. c #646364",
"-. c #666665",
";. c #6D6C6D",
":. c #6F6F6F",
">. c #717170",
",. c #747271",
"<. c #797877",
"1. c #808080",
"2. c gray53",
"3. c #8A8887",
"4. c #888888",
"5. c #8B8B8B",
"6. c gray55",
"7. c gray56",
"8. c #908F8F",
"9. c #929190",
"0. c #959493",
"q. c #9B9A99",
"w. c #9E9C9B",
"e. c #A0A0A0",
"r. c gray67",
"t. c #ADABAB",
"y. c #B2B1B1",
"u. c #B2B2B1",
"i. c #C1C1C1",
"p. c #C6C6C4",
"a. c #C6C6C6",
"s. c gray78",
"d. c #CACAC9",
"f. c #CECDCD",
"g. c gray91",
"h. c gray96",
"j. c white",
"k. c None",
/* pixels */
"k.k.k.k.k.k.k.k.k.k.k.k.k.k.k.k.k.k.k.k.k.k.k.k.k.k.k.k.k.k.k.k.k.k.k.k.k.k.k.k.",
"k.k.k.k.k.k.k.k.k.k.k.k.k.k.k.k.k.k.k.k.k.k.k.k.k.k.k.k.k.k.k.k.k.k.k.k.k.k.k.k.",
"k.k.k.k.k.k.k.k.k.k.k.k.k.k.k.k.k.k.k.k.k.k.k.k.k.k.k.k.k.k.k.k.k.k.k.k.k.k.k.k.",
"k.k.k.k.k.k.k.k.k.k.k.k.k.k.k.k.k.k.k.k.k.k.k.k.k.k.k.k.k.k.k.k.k.k.k.k.k.k.k.k.",
"k.k.k.k.k.k.k.k.k.k.k.k.k.k.k.k.k.k.k.k.k.k.k.k.k.k.k.k.k.k.k.k.k.k.k.k.k.k.k.k.",
"k.k.k.k.k.k.k.k.k.k.k.k.k.k.k.k.k.k.k.k.k.k.k.k.k.k.k.k.k.k.k.k.k.k.k.k.k.k.k.k.",
"k.k.k.k.k.k.k.k.k.k.k.k.k.k.k.k.k.k.k.k.k.k.k.k.k.k.k.k.k.k.k.k.k.k.k.k.k.k.k.k.",
"k.k.k.k.k.k.k.k.k.k.k.k.k.k.k.k.k.k.k.k.k.k.k.k.k.k.k.k.k.k.k.k.k.k.k.k.k.k.k.k.",
"k.k.k.k.k.k.k.k.k.k.k.k.k.k.k.k.k.k.k.k.k.k.k.k.k.k.k.k.k.k.k.k.k.k.k.k.k.k.k.k.",
"k.k.k.k.k.k.k.k.k.k.k.k.k.k.k.k.k.k.&.` ..:.2.t.k.k.k.k.k.k.k.k.k.k.k.k.k.k.k.k.",
"k.k.k.k.k.k.k.k.k.k.k.k.k.k.k.k.k.H 0 n T H : d.h.k.k.k.k.k.k.k.k.k.k.k.k.k.k.k.",
"k.k.k.k.k.k.k.k.k.k.k.k.k.k.k.k.k.: H ..O.@.H -.j.k.k.k.k.k.k.k.k.k.k.k.k.k.k.k.",
"k.k.k.k.k.k.k.k.k.k.k.k.k.k.k.k.% b ` ..@.+.@.  y.g.k.k.k.k.k.k.k.k.k.k.k.k.k.k.",
"k.k.k.k.k.k.k.k.k.k.k.k.k.k.k.k.0 A T ..+.@.+.I :.f.k.k.k.k.k.k.k.k.k.k.k.k.k.k.",
"k.k.k.k.k.k.k.k.k.k.k.k.k.k.k.0 n n I ` ` ....` b s.s.k.k.k.k.k.k.k.k.k.k.k.k.k.",
"k.k.k.k.k.k.k.k.k.k.k.k.k.k.k.0 n A H Q ` ` ` ] O r.s.k.k.k.k.k.k.k.k.k.k.k.k.k.",
"k.k.k.k.k.k.k.k.k.k.k.k.k.k.k.6 k k n U T T T ! & 5.i.k.k.k.k.k.k.k.k.k.k.k.k.k.",
"k.k.k.k.k.k.k.k.k.k.k.k.k.k.k.0 k k k C H Y Y Y 0 >.y.k.k.k.k.k.k.k.k.k.k.k.k.k.",
"k.k.k.k.k.k.k.k.k.k.k.k.k.k.k.p k 0 = U Y n S n k ] 4.k.k.k.k.k.k.k.k.k.k.k.k.k.",
"k.k.k.k.k.k.k.k.k.k.k.k.k.k.k.b k i p H H k k k p n -.k.k.k.k.k.k.k.k.k.k.k.k.k.",
"k.k.k.k.k.k.k.k.k.k.k.k.k.k.k.S k l n H 0 k 0 i 0 i T k.k.k.k.k.k.k.k.k.k.k.k.k.",
"k.k.k.k.k.k.k.k.k.k.k.k.k.k.k.] i b H H 0 0 6 0 0 0 z k.k.k.k.k.k.k.k.k.k.k.k.k.",
"k.k.k.k.k.k.k.k.k.k.k.k.k.k.k.,.i H H C 0 : : 0 6 5 0 k.k.k.k.k.k.k.k.k.k.k.k.k.",
"k.k.k.k.k.k.k.k.k.k.k.k.k.k.k.5.l b H C i : : 0 5 : : k.k.k.k.k.k.k.k.k.k.k.k.k.",
"k.k.k.k.k.k.k.k.k.k.k.k.k.k.k.0.] b U n 0 0 5 0 0 : O k.k.k.k.k.k.k.k.k.k.k.k.k.",
"k.k.k.k.k.k.k.k.k.k.k.k.k.k.k.w.<.= k p 5 : 0 : = : X k.k.k.k.k.k.k.k.k.k.k.k.k.",
"k.k.k.k.k.k.k.k.k.k.k.k.k.k.k.k.9.& n k 5 : 0 : % O k.k.k.k.k.k.k.k.k.k.k.k.k.k.",
"k.k.k.k.k.k.k.k.k.k.k.k.k.k.k.k.q.-.p b p p 5 : O . k.k.k.k.k.k.k.k.k.k.k.k.k.k.",
"k.k.k.k.k.k.k.k.k.k.k.k.k.k.k.k.k.8.O k k 5 : 0 : k.k.k.k.k.k.k.k.k.k.k.k.k.k.k.",
"k.k.k.k.k.k.k.k.k.k.k.k.k.k.k.k.k.8.e.n k c k 5 % k.k.k.k.k.k.k.k.k.k.k.k.k.k.k.",
"k.k.k.k.k.k.k.k.k.k.k.k.k.k.k.k.k.k.6.1.@.H = O k.k.k.k.k.k.k.k.k.k.k.k.k.k.k.k.",
"k.k.k.k.k.k.k.k.k.k.k.k.k.k.k.k.k.k.k.k.k.k.k.k.k.k.k.k.k.k.k.k.k.k.k.k.k.k.k.k.",
"k.k.k.k.k.k.k.k.k.k.k.k.k.k.k.k.k.k.k.k.k.k.k.k.k.k.k.k.k.k.k.k.k.k.k.k.k.k.k.k.",
"k.k.k.k.k.k.k.k.k.k.k.k.k.k.k.k.k.k.k.k.k.k.k.k.k.k.k.k.k.k.k.k.k.k.k.k.k.k.k.k.",
"k.k.k.k.k.k.k.k.k.k.k.k.k.k.k.k.k.k.k.k.k.k.k.k.k.k.k.k.k.k.k.k.k.k.k.k.k.k.k.k.",
"k.k.k.k.k.k.k.k.k.k.k.k.k.k.k.k.k.k.k.k.k.k.k.k.k.k.k.k.k.k.k.k.k.k.k.k.k.k.k.k.",
"k.k.k.k.k.k.k.k.k.k.k.k.k.k.k.k.k.k.k.k.k.k.k.k.k.k.k.k.k.k.k.k.k.k.k.k.k.k.k.k.",
"k.k.k.k.k.k.k.k.k.k.k.k.k.k.k.k.k.k.k.k.k.k.k.k.k.k.k.k.k.k.k.k.k.k.k.k.k.k.k.k.",
"k.k.k.k.k.k.k.k.k.k.k.k.k.k.k.k.k.k.k.k.k.k.k.k.k.k.k.k.k.k.k.k.k.k.k.k.k.k.k.k.",
"k.k.k.k.k.k.k.k.k.k.k.k.k.k.k.k.k.k.k.k.k.k.k.k.k.k.k.k.k.k.k.k.k.k.k.k.k.k.k.k."
};
