/* XPM */
static char *MDAwNg__[] = {
/* columns rows colors chars-per-pixel */
"40 40 190 2 ",
"   c gray23",
".  c #414141",
"X  c #444343",
"o  c #484848",
"O  c #494848",
"+  c #4A4A49",
"@  c #4D4C4C",
"#  c #4E4E4D",
"$  c gray31",
"%  c #50504F",
"&  c #515050",
"*  c #515150",
"=  c #515151",
"-  c #525151",
";  c #535352",
":  c #545353",
">  c #545453",
",  c gray33",
"<  c #555454",
"1  c #555554",
"2  c #565655",
"3  c #565656",
"4  c #575656",
"5  c #575756",
"6  c #585857",
"7  c #585858",
"8  c #595858",
"9  c #595958",
"0  c gray35",
"q  c #5A5959",
"w  c #5A5A59",
"e  c #5A5A5A",
"r  c #5B5A5A",
"t  c #5B5B5A",
"y  c #5B5B5B",
"u  c #5C5B5A",
"i  c #5C5B5B",
"p  c #5C5C5B",
"a  c gray36",
"s  c #5D5C5C",
"d  c #5D5D5C",
"f  c #5D5D5D",
"g  c #5E5D5D",
"h  c #5E5E5D",
"j  c #5F5E5D",
"k  c gray37",
"l  c #5F5E5E",
"z  c #5F5F5E",
"x  c #5F5F5F",
"c  c #605F5E",
"v  c #605F5F",
"b  c #60605F",
"n  c #61605F",
"m  c #606060",
"M  c #616060",
"N  c #616160",
"B  c gray38",
"V  c #626161",
"C  c #626261",
"Z  c #636261",
"A  c #626262",
"S  c #636262",
"D  c #636362",
"F  c gray39",
"G  c #646363",
"H  c #646463",
"J  c #656463",
"K  c #656464",
"L  c #656564",
"P  c #666565",
"I  c #666665",
"U  c #676765",
"Y  c gray40",
"T  c #676666",
"R  c #676767",
"E  c #686767",
"W  c #696866",
"Q  c #686867",
"!  c #696867",
"~  c #686868",
"^  c #696968",
"/  c #6A6969",
"(  c #6A6A69",
")  c #6A6A6A",
"_  c #6B6A6A",
"`  c #6B6B6A",
"'  c gray42",
"]  c #6C6B6B",
"[  c #6C6C6B",
"{  c #6C6C6C",
"}  c #6D6C6C",
"|  c #6D6D6C",
" . c #6E6E6D",
".. c gray43",
"X. c #6F6F6E",
"o. c #706F6E",
"O. c #716F6E",
"+. c gray44",
"@. c #717171",
"#. c #727171",
"$. c #727271",
"%. c gray45",
"&. c #747372",
"*. c #747473",
"=. c #747474",
"-. c #767675",
";. c #767676",
":. c #777676",
">. c #777776",
",. c #777777",
"<. c #787877",
"1. c #797978",
"2. c #797979",
"3. c gray48",
"4. c #7B7A7A",
"5. c #7B7B7A",
"6. c #7C7C7B",
"7. c #7D7C7B",
"8. c #7E7D7D",
"9. c #7E7E7D",
"0. c gray50",
"q. c #807F7F",
"w. c #80807E",
"e. c #80807F",
"r. c #828181",
"t. c #828281",
"y. c #838281",
"u. c #838382",
"i. c #838383",
"p. c #848484",
"a. c #858484",
"s. c #858584",
"d. c #868585",
"f. c #868686",
"g. c #878786",
"h. c gray53",
"j. c #888787",
"k. c #898787",
"l. c #888887",
"z. c #888888",
"x. c #898889",
"c. c #8A8989",
"v. c #8A8A89",
"b. c #8B8A8A",
"n. c #8B8B8A",
"m. c #8B8A8B",
"M. c #8C8C8B",
"N. c #8D8C8C",
"B. c #8D8D8D",
"V. c #8E8E8D",
"C. c #8E8E8E",
"Z. c #90908F",
"A. c #91908F",
"S. c #909090",
"D. c #919190",
"F. c gray57",
"G. c #929291",
"H. c #929292",
"J. c #939292",
"K. c #939393",
"L. c #949493",
"P. c gray58",
"I. c #959494",
"U. c #959594",
"Y. c #959595",
"T. c gray59",
"R. c #979696",
"E. c #989898",
"W. c #999998",
"Q. c gray60",
"!. c #9A9A99",
"~. c #9A9A9A",
"^. c #9B9B9B",
"/. c #9C9C9B",
"(. c gray61",
"). c #9D9D9C",
"_. c #9D9D9D",
"`. c #A0A0A0",
"'. c #A1A0A0",
"]. c #A1A1A0",
"[. c #A5A5A4",
"{. c #A7A6A6",
"}. c #A7A7A7",
"|. c #A9A8A8",
" X c #B0B0AF",
".X c #B9B9B9",
"XX c #C0C0C0",
"oX c #D0D0D0",
"OX c LightGray",
"+X c None",
/* pixels */
"+X+X+X+X+X+X+X+X+X+X+X+X+X+X+X+X+X+X+X+X+X+X+X+X+X+X+X+X+X+X+X+X+X+X+X+X+X+X+X+X",
"+X+X+X+X+X+X+X+X+X+X+X+X+X+X+X+X+X+X+X+X+X+X+X+X+X+X+X+X+X+X+X+X+X+X+X+X+X+X+X+X",
"+X+X+X+X+X+X+X+X+X+X+X+X+X+X+X+X+X+X+X+X+X+X+X+X+X+X+X+X+X+X+X+X+X+X+X+X+X+X+X+X",
"+X+X+X+X+X+X+X+X+X+X+X+X+X+X+X+X+X+X+X+X+X+X+X+X+X+X+X+X+X+X+X+X+X+X+X+X+X+X+X+X",
"+X+X+X+X+X+X+X+X+X+X+X+X+X+X+X+X+X+X+X+X+X+X+X+X+X+X+X+X+X+X+X+X+X+X+X+X+X+X+X+X",
"+X+X+X+X+X+X+X+X+X+X+X+X+X+X+X+X+X+X+X+X+X+X+X+X+X+X+X+X+X+X+X+X+X+X+X+X+X+X+X+X",
"+X+X+X+X+X+X+X+X+X+X+X+X+X+X+X+X+X+X+X+X+X+X+X+X+X+X+X+X+X+X+X+X+X+X+X+X+X+X+X+X",
"+X+X+X+X+X+X+X+X+X+X+X+X+X+X+X+X+X+X+X+X+X+X+X+X+X+X+X+X+X+X+X+X+X+X+X+X+X+X+X+X",
"+X+X+X+X+X+X+X+X+X+X+X+X+X+X+X+X+X+X+X+X+X+X+X+X+X+X+X+X+X+X+X+X+X+X+X+X+X+X+X+X",
"+X+X+X+X+X+X+X+X+X+X+X+X+X+X+X+X+X~.d.u.b.F.I.}.+X+X+X+X+X+X+X+X+X+X+X+X+X+X+X+X",
"+X+X+X+X+X+X+X+X+X+X+X+X+X+X+X+X5.5.9.b.F.F.F.F.`.XX+X+X+X+X+X+X+X+X+X+X+X+X+X+X",
"+X+X+X+X+X+X+X+X+X+X+X+X+X+X+X( | 5.d.V.F.~.`.{.F.V.oX+X+X+X+X+X+X+X+X+X+X+X+X+X",
"+X+X+X+X+X+X+X+X+X+X+X+X+X+XU H 5.5.u.V.~.~.~.(.`.I.V.OX+X+X+X+X+X+X+X+X+X+X+X+X",
"+X+X+X+X+X+X+X+X+X+X+X+X+XU U ( #.9.0.m.I.E.(.^.R.(.b./..X+X+X+X+X+X+X+X+X+X+X+X",
"+X+X+X+X+X+X+X+X+X+X+X+X+XA U A ( #.,.p.M.S.F.E.~.F.F.i.I.+X+X+X+X+X+X+X+X+X+X+X",
"+X+X+X+X+X+X+X+X+X+X+X+XA A g A ' ' +.9.d.b.M.b.A.M.M.u.j.e.+X+X+X+X+X+X+X+X+X+X",
"+X+X+X+X+X+X+X+X+X+X+X+Xi g 0 U A A ( ;.d.b.b.d.i.u.0.9.5.;.+X+X+X+X+X+X+X+X+X+X",
"+X+X+X+X+X+X+X+X+X+X+X+X0 n 0 n a g U ;.u.d.u.u.5.5.;.=.( #.+X+X+X+X+X+X+X+X+X+X",
"+X+X+X+X+X+X+X+X+X+X+X+Xn n 1 E 1 ( g ;.u.,.&.;.;.| +.#.| E +X+X+X+X+X+X+X+X+X+X",
"+X+X+X+X+X+X+X+X+X+X+X+XH n 5 A 0 g g ( #.( #.| ( U ( 5.( G +X+X+X+X+X+X+X+X+X+X",
"+X+X+X+X+X+X+X+X+X+X+X+XU c 0 n m A ( ' y A ( K A A U ] A g +X+X+X+X+X+X+X+X+X+X",
"+X+X+X+X+X+X+X+X+X+X+X+XW c 0 G U U ] ] y 7 A U A 0 i ( c 1 +X+X+X+X+X+X+X+X+X+X",
"+X+X+X+X+X+X+X+X+X+X+X+XO.c i c / / / ( m 0 1 g 0 6 A | 1 = +X+X+X+X+X+X+X+X+X+X",
"+X+X+X+X+X+X+X+X+X+X+X+X7.W g n ] ] R U m 1 0 1 ; 0 R U 0 O +X+X+X+X+X+X+X+X+X+X",
"+X+X+X+X+X+X+X+X+X+X+X+Xj.&.5 c A / U U c 0 i 0 % c o.g y . +X+X+X+X+X+X+X+X+X+X",
"+X+X+X+X+X+X+X+X+X+X+X+X+XA.% G G c m g 6 0 0 5 > 0 1 i = +X+X+X+X+X+X+X+X+X+X+X",
"+X+X+X+X+X+X+X+X+X+X+X+X+X(.u.% G i i 0 6 ; = = A c > n   +X+X+X+X+X+X+X+X+X+X+X",
"+X+X+X+X+X+X+X+X+X+X+X+X+X+X}.o.> H n i 1 0 0 1 p 6 g X +X+X+X+X+X+X+X+X+X+X+X+X",
"+X+X+X+X+X+X+X+X+X+X+X+X+X+X+X X<.O % 0 0 0 1 = 6 A @ +X+X+X+X+X+X+X+X+X+X+X+X+X",
"+X+X+X+X+X+X+X+X+X+X+X+X+X+X+X+X{.'.>.g 1 0 g U U O +X+X+X+X+X+X+X+X+X+X+X+X+X+X",
"+X+X+X+X+X+X+X+X+X+X+X+X+X+X+X+X+XP.I.Z.i.5.( g +X+X+X+X+X+X+X+X+X+X+X+X+X+X+X+X",
"+X+X+X+X+X+X+X+X+X+X+X+X+X+X+X+X+X+X+X+X+X+X+X+X+X+X+X+X+X+X+X+X+X+X+X+X+X+X+X+X",
"+X+X+X+X+X+X+X+X+X+X+X+X+X+X+X+X+X+X+X+X+X+X+X+X+X+X+X+X+X+X+X+X+X+X+X+X+X+X+X+X",
"+X+X+X+X+X+X+X+X+X+X+X+X+X+X+X+X+X+X+X+X+X+X+X+X+X+X+X+X+X+X+X+X+X+X+X+X+X+X+X+X",
"+X+X+X+X+X+X+X+X+X+X+X+X+X+X+X+X+X+X+X+X+X+X+X+X+X+X+X+X+X+X+X+X+X+X+X+X+X+X+X+X",
"+X+X+X+X+X+X+X+X+X+X+X+X+X+X+X+X+X+X+X+X+X+X+X+X+X+X+X+X+X+X+X+X+X+X+X+X+X+X+X+X",
"+X+X+X+X+X+X+X+X+X+X+X+X+X+X+X+X+X+X+X+X+X+X+X+X+X+X+X+X+X+X+X+X+X+X+X+X+X+X+X+X",
"+X+X+X+X+X+X+X+X+X+X+X+X+X+X+X+X+X+X+X+X+X+X+X+X+X+X+X+X+X+X+X+X+X+X+X+X+X+X+X+X",
"+X+X+X+X+X+X+X+X+X+X+X+X+X+X+X+X+X+X+X+X+X+X+X+X+X+X+X+X+X+X+X+X+X+X+X+X+X+X+X+X",
"+X+X+X+X+X+X+X+X+X+X+X+X+X+X+X+X+X+X+X+X+X+X+X+X+X+X+X+X+X+X+X+X+X+X+X+X+X+X+X+X"
};
