/* XPM */
static char *MDAwNw__[] = {
/* columns rows colors chars-per-pixel */
"40 40 215 2 ",
"   c #535252",
".  c #545352",
"X  c #545453",
"o  c #555453",
"O  c #555554",
"+  c #565554",
"@  c #585857",
"#  c #5B5B5A",
"$  c #5C5B5A",
"%  c #5D5D5C",
"&  c #5E5D5C",
"*  c #5F5D5C",
"=  c #5E5D5D",
"-  c #5E5E5D",
";  c #5F5F5E",
":  c #5F5F5F",
">  c #605E5E",
",  c #60605F",
"<  c gray38",
"1  c #626160",
"2  c #636261",
"3  c #636362",
"4  c gray39",
"5  c #646362",
"6  c #646463",
"7  c #656463",
"8  c #646464",
"9  c #656464",
"0  c #656564",
"q  c #666565",
"w  c #666665",
"e  c #676665",
"r  c #676765",
"t  c gray40",
"y  c #676666",
"u  c #676766",
"i  c #686766",
"p  c #686767",
"a  c #686867",
"s  c #696868",
"d  c #696968",
"f  c DimGray",
"g  c #6A6968",
"h  c #6A6969",
"j  c #6A6A69",
"k  c #6A6A6A",
"l  c #6B6B6A",
"z  c #6C6B6B",
"x  c #6C6C6B",
"c  c #6D6C6B",
"v  c #6D6C6C",
"b  c #6D6D6C",
"n  c #6D6D6D",
"m  c #6E6D6C",
"M  c #6E6D6D",
"N  c #6F6D6D",
"B  c #6E6E6D",
"V  c #6F6E6E",
"C  c #6F6F6E",
"Z  c #6F6F6F",
"A  c #706F6E",
"S  c #716F6E",
"D  c #706F6F",
"F  c #70706F",
"G  c #71706F",
"H  c gray44",
"J  c #717070",
"K  c #717170",
"L  c #727171",
"P  c #727271",
"I  c #737271",
"U  c #737272",
"Y  c #737372",
"T  c gray45",
"R  c #747272",
"E  c #747473",
"W  c #747474",
"Q  c #757474",
"!  c #757574",
"~  c gray46",
"^  c #767575",
"/  c #767675",
"(  c #777676",
")  c #777776",
"_  c #777777",
"`  c #787777",
"'  c #787877",
"]  c gray47",
"[  c #797878",
"{  c #797978",
"}  c #797879",
"|  c #797979",
" . c #7A7978",
".. c #7A7979",
"X. c #7A7A79",
"o. c #7B7A79",
"O. c #7B7A7A",
"+. c #7B7B7A",
"@. c #7C7B7A",
"#. c #7D7C7B",
"$. c #7C7C7C",
"%. c #7D7C7C",
"&. c #7D7D7C",
"*. c gray49",
"=. c #7E7D7D",
"-. c #7E7E7C",
";. c #7F7E7D",
":. c #7F7E7E",
">. c gray50",
",. c #807F7F",
"<. c #80807F",
"1. c #808080",
"2. c #818080",
"3. c #818180",
"4. c #828180",
"5. c #828281",
"6. c #838381",
"7. c #828182",
"8. c #838382",
"9. c #838383",
"0. c #848383",
"q. c #848483",
"w. c #848484",
"e. c #858584",
"r. c gray52",
"t. c #868585",
"y. c #868686",
"u. c #878786",
"i. c #888786",
"p. c #888888",
"a. c #898988",
"s. c #8A8989",
"d. c gray54",
"f. c #8B8A8A",
"g. c #8B8B8B",
"h. c #8C8B8B",
"j. c #8C8C8B",
"k. c gray55",
"l. c #8D8D8C",
"z. c #8E8D8D",
"x. c #8E8E8D",
"c. c #8E8E8E",
"v. c #8F8E8E",
"b. c #90908F",
"n. c #909090",
"m. c #919190",
"M. c gray57",
"N. c #929191",
"B. c #929292",
"V. c #939292",
"C. c #939392",
"Z. c #949393",
"A. c gray58",
"S. c #959494",
"D. c #959495",
"F. c #959595",
"G. c #969594",
"H. c #969595",
"J. c #969695",
"K. c gray59",
"L. c #979696",
"P. c #979796",
"I. c #979797",
"U. c #989797",
"Y. c #989897",
"T. c #999898",
"R. c #999998",
"E. c gray60",
"W. c #9A9A99",
"Q. c #9B9B9A",
"!. c #9C9B9C",
"~. c gray61",
"^. c #9D9C9C",
"/. c #9D9C9D",
"(. c #9D9D9D",
"). c #9E9E9D",
"_. c gray62",
"`. c #9F9F9E",
"'. c #9F9F9F",
"]. c #A0A09E",
"[. c #A0A09F",
"{. c #9F9FA0",
"}. c #A1A1A0",
"|. c gray63",
" X c #A2A1A1",
".X c #A2A2A1",
"XX c #A2A2A2",
"oX c #A3A2A2",
"OX c gray64",
"+X c #A4A4A4",
"@X c #A5A5A5",
"#X c #A6A6A5",
"$X c gray65",
"%X c #A7A6A6",
"&X c #A7A7A6",
"*X c gray66",
"=X c #A9A9A8",
"-X c #A9A9A9",
";X c #AAA9A9",
":X c #AAAAAA",
">X c #ABAAAA",
",X c gray67",
"<X c #ACACAA",
"1X c #ACACAB",
"2X c #AEAEAE",
"3X c #AFAEAE",
"4X c #AFAFAE",
"5X c #AFAFAF",
"6X c #B0B0AF",
"7X c gray69",
"8X c #B1B1B1",
"9X c #B4B4B3",
"0X c #B5B5B4",
"qX c gray74",
"wX c None",
/* pixels */
"wXwXwXwXwXwXwXwXwXwXwXwXwXwXwXwXwXwXwXwXwXwXwXwXwXwXwXwXwXwXwXwXwXwXwXwXwXwXwXwX",
"wXwXwXwXwXwXwXwXwXwXwXwXwXwXwXwXwXwXwXwXwXwXwXwXwXwXwXwXwXwXwXwXwXwXwXwXwXwXwXwX",
"wXwXwXwXwXwXwXwXwXwXwXwXwXwXwXwXwXwXwXwXwXwXwXwXwXwXwXwXwXwXwXwXwXwXwXwXwXwXwXwX",
"wXwXwXwXwXwXwXwXwXwXwXwXwXwXwXwXwXwXwXwXwXwXwXwXwXwXwXwXwXwXwXwXwXwXwXwXwXwXwXwX",
"wXwXwXwXwXwXwXwXwXwXwXwXwXwXwXwXwXwXwXwXwXwXwXwXwXwXwXwXwXwXwXwXwXwXwXwXwXwXwXwX",
"wXwXwXwXwXwXwXwXwXwXwXwXwXwXwXwXwXwXwXwXwXwXwXwXwXwXwXwXwXwXwXwXwXwXwXwXwXwXwXwX",
"wXwXwXwXwXwXwXwXwXwXwXwXwXwXwXwXwXwXwXwXwXwXwXwXwXwXwXwXwXwXwXwXwXwXwXwXwXwXwXwX",
"wXwXwXwXwXwXwXwXwXwXwXwXwXwXwXwXwXwXwXwXwXwXwXwXwXwXwXwXwXwXwXwXwXwXwXwXwXwXwXwX",
"wXwXwXwXwXwXwXwXwXwXwXwXwXwXwXwXwXwXwXwXwXwXwXwXwXwXwXwXwXwXwXwXwXwXwXwXwXwXwXwX",
"wXwXwXwXwXwXwXwXwXwXwXwXwXwXwXwXqX-X).R.G.m.G.!.wXwXwXwXwXwXwXwXwXwXwXwXwXwXwXwX",
"wXwXwXwXwXwXwXwXwXwXwXwXwXwXqX~.].&X*X&XOX!.n.e.q.m.wXwXwXwXwXwXwXwXwXwXwXwXwXwX",
"wXwXwXwXwXwXwXwXwXwXwXwXwX<XY.oX0X7X-X-X&X{.).I.j.^ 2.wXwXwXwXwXwXwXwXwXwXwXwXwX",
"wXwXwXwXwXwXwXwXwXwXwXwXoXG.2X9X-X2X2X2X-X{.G.c.g.p.F { wXwXwXwXwXwXwXwXwXwXwXwX",
"wXwXwXwXwXwXwXwXwXwXwXp.m.7X2X&X6X7X-X-XoX!.I.m.e.<.2.v T wXwXwXwXwXwXwXwXwXwXwX",
"wXwXwXwXwXwXwXwXwXwXwX>.].*XoXoX&X&X&X).).D.p.e.9.<.{ ' v z wXwXwXwXwXwXwXwXwXwX",
"wXwXwXwXwXwXwXwXwXwX2.x.oX).~.&X-XoX/.).G.p.7.>.{ { E ^ Y v wXwXwXwXwXwXwXwXwXwX",
"wXwXwXwXwXwXwXwXwXwX' C.U.U.Y.~.U.U.U.G.x.e.#.>.^ T D v F v l wXwXwXwXwXwXwXwXwX",
"wXwXwXwXwXwXwXwXwXwX{ Y.j.q.C.C.I.D.I.k.u.>.^ { ^ v b l l 8 8 wXwXwXwXwXwXwXwXwX",
"wXwXwXwXwXwXwXwXwXl ,.C.,.o.v.0.2.D.7.x.9.Y G +.T Y b l l l l wXwXwXwXwXwXwXwXwX",
"wXwXwXwXwXwXwXwXwX3 #.i.' R ' ` ^ ] 7.k.W Y F b x v l a l v l wXwXwXwXwXwXwXwXwX",
"wXwXwXwXwXwXwXwXwX> @.h.G G ^ T T T Y { $.+.' ' ' v 8 l 8 l l wXwXwXwXwXwXwXwXwX",
"wXwXwXwXwXwXwXwXwX8 D @.G 8 D >.v l a Y <.{ ' 9.q.T 8 8 z p v wXwXwXwXwXwXwXwXwX",
"wXwXwXwXwXwXwXwXwXwXG 7 a 7 8 G l a v Y { { ^ ^ ^ a l 8 ^ z T wXwXwXwXwXwXwXwXwX",
"wXwXwXwXwXwXwXwXwXwXD b 2.7 7 E G v b G W ^ T Y l 8 a G 8 { { wXwXwXwXwXwXwXwXwX",
"wXwXwXwXwXwXwXwXwXwXW { R v & & l v x F Y Y v ^ G p z T 7 p.wXwXwXwXwXwXwXwXwXwX",
"wXwXwXwXwXwXwXwXwXwXwX@.o , > a b 8 a a a a Y G p l b 3 ,.e.wXwXwXwXwXwXwXwXwXwX",
"wXwXwXwXwXwXwXwXwXwXwXR 2.o & , & & # 7 v x 8 8 p T l G R.wXwXwXwXwXwXwXwXwXwXwX",
"wXwXwXwXwXwXwXwXwXwXwXwX<.i.o ; a > 7 l 8 8 l v b ; R &XwXwXwXwXwXwXwXwXwXwXwXwX",
"wXwXwXwXwXwXwXwXwXwXwXwXwXe.R.v   o @ , 8 8 3 O ; x.-XwXwXwXwXwXwXwXwXwXwXwXwXwX",
"wXwXwXwXwXwXwXwXwXwXwXwXwXwX2.G.~.e.T 8 8 8 { Y.-X).wXwXwXwXwXwXwXwXwXwXwXwXwXwX",
"wXwXwXwXwXwXwXwXwXwXwXwXwXwXwXwXx.).).OX&XoXOXoXwXwXwXwXwXwXwXwXwXwXwXwXwXwXwXwX",
"wXwXwXwXwXwXwXwXwXwXwXwXwXwXwXwXwXwXwXwXwXwXwXwXwXwXwXwXwXwXwXwXwXwXwXwXwXwXwXwX",
"wXwXwXwXwXwXwXwXwXwXwXwXwXwXwXwXwXwXwXwXwXwXwXwXwXwXwXwXwXwXwXwXwXwXwXwXwXwXwXwX",
"wXwXwXwXwXwXwXwXwXwXwXwXwXwXwXwXwXwXwXwXwXwXwXwXwXwXwXwXwXwXwXwXwXwXwXwXwXwXwXwX",
"wXwXwXwXwXwXwXwXwXwXwXwXwXwXwXwXwXwXwXwXwXwXwXwXwXwXwXwXwXwXwXwXwXwXwXwXwXwXwXwX",
"wXwXwXwXwXwXwXwXwXwXwXwXwXwXwXwXwXwXwXwXwXwXwXwXwXwXwXwXwXwXwXwXwXwXwXwXwXwXwXwX",
"wXwXwXwXwXwXwXwXwXwXwXwXwXwXwXwXwXwXwXwXwXwXwXwXwXwXwXwXwXwXwXwXwXwXwXwXwXwXwXwX",
"wXwXwXwXwXwXwXwXwXwXwXwXwXwXwXwXwXwXwXwXwXwXwXwXwXwXwXwXwXwXwXwXwXwXwXwXwXwXwXwX",
"wXwXwXwXwXwXwXwXwXwXwXwXwXwXwXwXwXwXwXwXwXwXwXwXwXwXwXwXwXwXwXwXwXwXwXwXwXwXwXwX",
"wXwXwXwXwXwXwXwXwXwXwXwXwXwXwXwXwXwXwXwXwXwXwXwXwXwXwXwXwXwXwXwXwXwXwXwXwXwXwXwX"
};
