/* XPM */
static char *c3RhbmRpbmc_[] = {
/* columns rows colors chars-per-pixel */
"19 40 181 2 ",
"   c #000000",
".  c #01010D",
"X  c #000511",
"o  c #021115",
"O  c #17191A",
"+  c #26010B",
"@  c #321209",
"#  c #2D1C1A",
"$  c #2E201F",
"%  c #39251C",
"&  c #191820",
"*  c #25252B",
"=  c gray16",
"-  c gray15",
";  c #333439",
":  c #43020A",
">  c #6D0102",
",  c #611408",
"<  c #4C2013",
"1  c #50291A",
"2  c #7D3600",
"3  c #472F25",
"4  c #552B22",
"5  c #543326",
"6  c #5B3225",
"7  c #5C3629",
"8  c #483227",
"9  c #643D2C",
"0  c #6F3F2B",
"q  c #743B28",
"w  c #7D3D2A",
"e  c #71422E",
"r  c #684A36",
"t  c #744633",
"y  c #7F4731",
"u  c #774C38",
"i  c #7E553B",
"p  c #4D4D4F",
"a  c #524E4B",
"s  c #55504D",
"d  c #4D4F5B",
"f  c #7F5348",
"g  c #77694E",
"h  c #585C65",
"j  c #656564",
"k  c gray43",
"l  c #7E6E67",
"z  c #6F6F71",
"x  c #863F2B",
"c  c #854C35",
"v  c #8B4B34",
"b  c #844B36",
"n  c #914B35",
"m  c #855035",
"M  c #895037",
"N  c #8B533B",
"B  c #85573D",
"V  c #93563D",
"C  c #93593E",
"Z  c #9B573D",
"A  c #8F5D42",
"S  c #885746",
"D  c #925641",
"F  c #945C41",
"G  c #9B5E42",
"H  c #946345",
"J  c #9B6345",
"K  c #996C4D",
"L  c #95624F",
"P  c #976C5B",
"I  c #996B54",
"U  c #957A57",
"Y  c #8A7655",
"T  c #A26344",
"R  c #AB6445",
"E  c #A66C4D",
"W  c #AC6B4B",
"Q  c #AB6949",
"!  c #B26748",
"~  c #B6714D",
"^  c #AA6E51",
"/  c #A27252",
"(  c #AC7053",
")  c #AF7A58",
"_  c #AD765A",
"`  c #B37252",
"'  c #BA7351",
"]  c #BD7954",
"[  c #BB7D5A",
"{  c #B07B5C",
"}  c #8C756D",
"|  c #C07149",
" . c #C37955",
".. c #C67F5B",
"X. c #C87B56",
"o. c #97805E",
"O. c #BF8C65",
"+. c #B4946E",
"@. c #A58172",
"#. c #AC8C7F",
"$. c #BB927E",
"%. c #C5825B",
"&. c #CD845D",
"*. c #CD895F",
"=. c #C58057",
"-. c #D3865E",
";. c #D3885F",
":. c #C58D65",
">. c #C98C64",
",. c #D48B62",
"<. c #D88E65",
"1. c #D28760",
"2. c #C3966D",
"3. c #CF946A",
"4. c #D39366",
"5. c #D4946A",
"6. c #DA956A",
"7. c #DC9B6E",
"8. c #D79568",
"9. c #C79E72",
"0. c #CE9B70",
"q. c #DD9D71",
"w. c #E2976A",
"e. c #CAAA7B",
"r. c #CBA578",
"t. c #D6AD7C",
"y. c #D9AF7F",
"u. c #D8A476",
"i. c #E3A375",
"p. c #E5AE7E",
"a. c #E8AE7E",
"s. c #E8B07F",
"d. c #9F968F",
"f. c #959492",
"g. c #AF8E83",
"h. c #B68F80",
"j. c #B69389",
"k. c #BD9F93",
"l. c #BBA39B",
"z. c #AEAAA9",
"x. c #CDAE80",
"c. c #D7AB83",
"v. c #CEB282",
"b. c #DAB282",
"n. c #D1B381",
"m. c #D9AB94",
"M. c #E6B684",
"N. c #EAB684",
"B. c #EBB986",
"V. c #EDBC89",
"C. c #F2BE8B",
"Z. c #F0B887",
"A. c #E5B89D",
"S. c #C9ADA2",
"D. c #D3BAA8",
"F. c #D5BFB0",
"G. c #E7BAA5",
"H. c #EAC58D",
"J. c #F4C28D",
"K. c #EEC691",
"L. c #F2C691",
"P. c #F4CB94",
"I. c #FACD96",
"U. c #F6CF98",
"Y. c #F8CF9A",
"T. c #F9D196",
"R. c #FBD29A",
"E. c #FED99E",
"W. c #D9C3BD",
"Q. c #D8C5B7",
"!. c #FFDCA1",
"~. c #E2CFBE",
"^. c #F7D9B5",
"/. c #DACFC5",
"(. c #D7D0C0",
"). c #E8D4C7",
"_. c #F1D7C9",
"`. c #FFE9C4",
"'. c #E3E3D7",
"]. c #FAE8DE",
"[. c None",
/* pixels */
"[.[.[.[.[.j.x w  .-.] w v k.[.[.[.[.[.",
"[.[.[.[.G.c.b.c.M.V.M.c.>.( l.[.[.[.[.",
"[.[.[._.q.I.!.E.R.R.!.R.N.,.J W.[.[.[.",
"[.[._.6.P.R.T.T.R.T.T.T.R.Z...C W.[.[.",
"[.[._.w.P.T.T.R.Y.R.I.T.R.V.=.Z W.[.[.",
"[.[.).[ K.R.T.R.R.Y.R.I.E.s. .C /.[.[.",
"[.[.S.F L.R.T.R.R.Y.T.I.R.B. .C S.[.[.",
"[.G. .F K.R.Y.Y.T.T.T.T.E.B. .N M j.[.",
"[.^.B.N 3.J.E.E.E.R.R.E.s.w.=.N  .m.[.",
"[.`.P.v  .5.t.y.M.V.B.y.~ | *.N ,.G.[.",
"[.`.V.y .._ S e  .;. .q S @.%.c ..A.[.",
"[.A.4.# 2 F.(.@ ~ ;.~ @ W.Q.2 % V $.[.",
"[.].h.o > ).'.  r.C.r.  '.).> O } [.[.",
"[.[.[.s , D.~.Y H.!.H.t Q.D., a [.[.[.",
"[.[.[.[.- J i.R.T.R.L.,.;.E - [.[.[.[.",
"[.[.[.P t < B i.I.!.I.<.m 1 t P [.[.[.",
"[.[.$.] ~ J N R 2.r.2.W C J ` ] $.[.[.",
"[.{ ` ,.,.<.>.K H H H K *.<.1.<.' @.[.",
"[.g.! 1.&.&.u.P.P.P.P.P.q.&.1.&.Q g.[.",
"g._ 4.V.8.! :.R.R.R.R.Y.:.! 8.V.3.` g.",
"v >.C.R.w.n U R.R.R.T.R.U n q.R.C.>.v ",
"w c.E.U.6.q g U.U.U.T.U.g w 6.U.!.t.w ",
"w b.!.U.) : r 7.P.R.L.q.r : ) Y.!.t.x ",
"c :.N.u.J + 9 1.P.!.L.-.9 + J u.N.:.b ",
"q [ q.8.G 4 t ..M.P.B...t 4 G 5.7.[ 0 ",
"  e.!.P./ w M m ..<.=.N m w / P.!.e.  ",
"  v.R.7.J b b y V G G M M c J q.Y.n.  ",
"  9.a.R t e F ^ Q F y c M t t ! p.0.  ",
"* ^ ' e o 4 T <.<.` c F D 9 o q ' ^ * ",
"[.l 8 # X 6 G &.,.W C &.T 7 o - 3 l [.",
"[.[.[.[.u Z >.B.6.Q C ;...F & [.[.[.[.",
"[.[.[.[.L *.C.R.u.R C &.6.^ = [.[.[.[.",
"[.[.[.[.D c.!.T.q.R C &.<.E - [.[.[.[.",
"[.[.[.I ' N.!.T.q.R C ;.;.J = [.[.[.[.",
"[.[.[.Z ..q.p.N.8.W V &.a.0.F z [.[.[.",
"[.[.[.T 5.7.,...1.W F 7.U.P.4.i d.[.[.",
"[.g.R ,.L.!.V.1.<.Q / T.R.R.P.4.u j [.",
"p ( i.I.!.!.L.T B 7 r o.U o.U S 5 d [.",
"X N :.x.r.e.+.7 . ; k j j j j j h z.[.",
"O X           o O f.[.[.[.[.[.[.[.[.[."
};
