/* XPM */
static char *ZXhpdA__[] = {
/* columns rows colors chars-per-pixel */
"40 40 121 2 ",
"   c #001B27",
".  c #021728",
"X  c #001C28",
"o  c #072427",
"O  c #062428",
"+  c #0A252A",
"@  c #12242A",
"#  c #1E282A",
"$  c #22282C",
"%  c #2E2C2D",
"&  c #302C2D",
"*  c #3C2F2E",
"=  c #36312E",
"-  c #2F2D30",
";  c #312C30",
":  c #392F30",
">  c #3E3132",
",  c #49342F",
"<  c #453334",
"1  c #4A3535",
"2  c #4D3936",
"3  c #4E3938",
"4  c #523B35",
"5  c #573F3A",
"6  c #5A3F3A",
"7  c #663E3C",
"8  c #5D403C",
"9  c #69453F",
"0  c #69493C",
"q  c #79533E",
"w  c #623E40",
"e  c #644240",
"r  c #6B4541",
"t  c #7E4B47",
"y  c #7E4C48",
"u  c #7B5142",
"i  c #814B46",
"p  c #864F4A",
"a  c #86514B",
"s  c #89524C",
"d  c #915D47",
"f  c #94574E",
"g  c #945C4B",
"h  c #985F4C",
"j  c #935651",
"k  c #9D5753",
"l  c #9E5A53",
"z  c #A35D53",
"x  c #A15F53",
"c  c #A05C53",
"v  c #A55C53",
"b  c #A55F53",
"n  c #A05955",
"m  c #A15A54",
"M  c #A05B54",
"N  c #A15D54",
"B  c #A35D55",
"V  c #A35F54",
"C  c #A35E57",
"Z  c #A65D54",
"A  c #A65D56",
"S  c #A65D57",
"D  c #A45E56",
"F  c #A75E57",
"G  c #A15A53",
"H  c #A85B55",
"J  c #A85D57",
"K  c #AA5D57",
"L  c #AC5F59",
"P  c #966046",
"I  c #996347",
"U  c #97604B",
"Y  c #996349",
"T  c #99634B",
"R  c #9C624A",
"E  c #9A6448",
"W  c #9A644A",
"Q  c #9B654B",
"!  c #9A644C",
"~  c #9B654B",
"^  c #9E684C",
"/  c #A26052",
"(  c #A36153",
")  c #A46053",
"_  c #A66152",
"`  c #A56154",
"'  c #A66054",
"]  c #AE6157",
"[  c #AD6356",
"{  c #A96455",
"}  c #B77157",
"|  c #BD7753",
" . c #BA7055",
".. c #BC7257",
"X. c #BD7755",
"o. c #BE7457",
"O. c #BE7757",
"+. c #BD7857",
"@. c #BE7A57",
"#. c #B77459",
"$. c #B97158",
"%. c #B97359",
"&. c #BA7259",
"*. c #B9735A",
"=. c #BA725A",
"-. c #BB735A",
";. c #BC7259",
":. c #BD735A",
">. c #BA745A",
",. c #BC745C",
"<. c #BB7359",
"1. c #BE7958",
"2. c #BC7A58",
"3. c #BF7A59",
"4. c #BE795A",
"5. c #BC7A5A",
"6. c #BF7959",
"7. c #C07756",
"8. c #C77C5F",
"9. c #C47C5B",
"0. c #C97A5C",
/* pixels */
"& % $ O O % % & & & % & & & & & & & % & & & & % & & & & @ O o O + + O X   + % & ",
"% ; > < < = & % & & & & & & & & & & & & & & & & & & & % < < < 1 < < < 2 4 < & % ",
"# < 7 t i = % & & & & & & & % & & & & & & & & & & & & & r i i i t t p d h q < @ ",
"+ < y k D > % ; & & & % & & & & & & & & & % & & & & & & p n l l l k D &.| R 4   ",
"O 1 i ( ] < % % & & & & & & & & % & & & & & & & & & & & s D D J v G ] O.8.^ 4 X ",
"O < t l C * % % & & & & & & & & & & & % & & & & & & & & a c c G l l Z ,.| R 4   ",
"O < t l B < % & & & & & & & & & & & & & & & % & & & & & a c c c l k Z &.9.E 4   ",
"O 1 y l J > % & % & & & & & & & & & & & & & & & & % & & a c l c l l / &.1.Y 4 X ",
"O 1 t k D < % % & & & & & & & % & & & % & & & & & & % % a D G c l k ( &.1.Y 4 X ",
"O < t n D > % % & & & % % & & & & & & & & & & & % % & % a h l G l k D %.9.Y 4 X ",
"o < y l J < & & & & % & % & & & & & & & & & & % & & & % a c c c l l ) &.1.! 4 X ",
"+ < t n D > & & & % & & & & & & % & & & & & & & & & & % a c c c B l ) &.2.Y 4 X ",
"o < t l B f f f f 9 & & & & % & & & & & % & & & & & & & a c c c l k Z %.@.Y 4   ",
"o 1 t l Z l c c l 9 & & & % & % % & & & & % & & & & & % a l c c l l / ..@.R 4   ",
"O < t G D l c c l r = % % & % % & & & & & & & & & & % % a l c c l k B &.1.Y 4 X ",
"o 1 t G Z G c c c f a 8 % & % & & % & & & & & & & - % = 1 2 2 2 2 w ) O.1.Y 4 X ",
"O 1 t l D c c c c c c 9 % & & & & & & & & & & & & & & % & & % & % 2 Z &.1.Y 4   ",
"o < t l D c c c c c c 9 & & & & & & & & & % & & % & & & % & % % % 2 c &.9.Y 4   ",
"O 1 t G J G c c c c l 9 & % % & & & % & & & & & & & & % & & & & & 2 ) &.@.Y 4   ",
"o < t G D c c c c c l 9 & % & & & & & & & & & & & & ; & & & & & % 2 ) &.1.R 4 X ",
"O < t k J G c c c c c r % & & % & & & & % & & & & & & & & & & & & 3 c &.@.E 4   ",
"o 1 t G D c c c c c a 4 % & % & & & & & & & & % & & & & % & & & % 2 ) &.@.E 4   ",
"o < t n J c c c c c 9 & & & & & % & & & & & & & & & & % & & & & & 2 / &.1.Y 4   ",
"O 1 t l D c c c c c 9 & & & & & & & & & & & & & & & & & & % & & % 2 ) &.9.Y 4   ",
"O < t n D c c c c c r % & % & & & & & & & & & & & & & % % & & & % 2 Z &.1.Y 4 X ",
"o 1 t n v n c c c c 9 & & % & & & % & & & & & & & & & & & & & & % 2 ) &.1.Y 4 X ",
"o 1 t k J l c n l c r & % & & & & & & & % & & & % & & & & & & & & 2 / :.1.Y 4 X ",
"@ < r p s s s s a a 7 & & & & & & & & & & & & % & & & & & & & & & 3 ) &.9.U 4 X ",
"- = > < 1 1 1 > & & & & & & & & & & % & & & & & ; % & % & & & & % 2 Z &.@.Y 4   ",
"O < y n B l C x 2 & & & & & & ; & & & & & & & & & & & & & & & * < 5 / &.1.R 4   ",
"O < y G C x x l 2 & ; & ; & & & & & & & & & & & % & - & % & & 9 n l ` &.1.Y 4   ",
"O < y n C l l x 1 & % & & & % % & & & & & % & & ; & & & % % & r l l ) %.1.Y 4 X ",
"+ < t l D G l l 2 & & & ; & & & & & & & & & % & & & & & & & & 9 G k z  .2.R 4 X ",
"+ 1 t l n k l k 3 & % & & & & & & & & & & % & & % & & & & & & 7 k k c  .2.R 4 X ",
"O < a / ] ) ) ` 3 & & & & % & & % & & & & & & & & & & & & & & 9 Z c { <.@.I 4   ",
"X 2 g &.9.%.&.%.5 & & & & & & & & & & & & & & & & & & & & & & q  .} <.0.8.^ 4   ",
"X 4 I 7.7.7.1.O.6 % & & & & & & % & & & & & & & & & & & & & % q @.@.9.9.<.P 2 X ",
"+ < u ^ ^ ^ ! Y 1 % & & & & & % & & & & & & & & & & & & ; & % 0 Y Y R ^ U u < + ",
"% & < 4 4 4 4 4 * & % % % & % % & & & & & & & & & & & & & & & < 4 4 4 4 4 < & % ",
"& & @ X .       $ & & & & & & & & & & & & & & & & & ; & & & & @ X X X .   @ % = "
};
