/* XPM */
static char *Zmxvb3I_[] = {
/* columns rows colors chars-per-pixel */
"40 40 153 2 ",
"   c #001B26",
".  c #001A27",
"X  c #001B27",
"o  c #001C27",
"O  c #011828",
"+  c #001A29",
"@  c #001B29",
"#  c #001C28",
"$  c #001E28",
"%  c #062327",
"&  c #002329",
"*  c #01242A",
"=  c #072428",
"-  c #092528",
";  c #082529",
":  c #092529",
">  c #0A2629",
",  c #0F232C",
"<  c #09262C",
"1  c #10232A",
"2  c #11242B",
"3  c #12252C",
"4  c #1E282A",
"5  c #20282B",
"6  c #2B2B2D",
"7  c #2C2A2D",
"8  c #2D2B2E",
"9  c #2C2C2E",
"0  c #332D2D",
"q  c #322E2F",
"w  c #342E2E",
"e  c #3F3131",
"r  c #3F3033",
"t  c #473332",
"y  c #443532",
"u  c #463432",
"i  c #473533",
"p  c #453633",
"a  c #473334",
"s  c #473335",
"d  c #463434",
"f  c #483330",
"g  c #493431",
"h  c #493433",
"j  c #483632",
"k  c #493335",
"l  c #4E3934",
"z  c #4E3B34",
"x  c #4F3B34",
"c  c #4F3A37",
"v  c #523932",
"b  c #513A34",
"n  c #523B35",
"m  c #523A36",
"M  c #543B36",
"N  c #503C35",
"B  c #533C36",
"V  c #663E3C",
"C  c #794F3F",
"Z  c #7B4845",
"A  c #7C4946",
"S  c #7F4A46",
"D  c #7E4B47",
"F  c #7F4C48",
"G  c #795340",
"H  c #7B5240",
"J  c #804946",
"K  c #814A47",
"L  c #804B47",
"P  c #814C44",
"I  c #824D47",
"U  c #844F47",
"Y  c #814C48",
"T  c #915D48",
"R  c #945D49",
"E  c #9A5452",
"W  c #9D5652",
"Q  c #9B5852",
"!  c #9D5851",
"~  c #9D5853",
"^  c #9C5953",
"/  c #9E5952",
"(  c #9E5B52",
")  c #9F5A53",
"_  c #9E5B53",
"`  c #9C5855",
"'  c #9E5954",
"]  c #9E5B55",
"[  c #A15B51",
"{  c #A05953",
"}  c #A15B53",
"|  c #A05C51",
" . c #A05C53",
".. c #A25C52",
"X. c #A35F52",
"o. c #A25E53",
"O. c #A45E52",
"+. c #A55F53",
"@. c #A15A54",
"#. c #A35A54",
"$. c #A65B55",
"%. c #A15D54",
"&. c #A25C54",
"*. c #A25E55",
"=. c #A35F56",
"-. c #A55C55",
";. c #A75C56",
":. c #A65D56",
">. c #A45E56",
",. c #AC5F57",
"<. c #946048",
"1. c #97604B",
"2. c #986049",
"3. c #996349",
"4. c #9B634A",
"5. c #9C624A",
"6. c #9A644A",
"7. c #9D654C",
"8. c #9E644C",
"9. c #9E684E",
"0. c #A0684D",
"q. c #A46053",
"w. c #A46055",
"e. c #A46057",
"r. c #A86054",
"t. c #AC6257",
"y. c #A96455",
"u. c #AC6456",
"i. c #B87057",
"p. c #B97457",
"a. c #BB7456",
"s. c #BE7757",
"d. c #BB7957",
"f. c #BE7856",
"g. c #BF7957",
"h. c #B97158",
"j. c #B87258",
"k. c #BA7259",
"l. c #BB735B",
"z. c #BB7458",
"x. c #BA745A",
"c. c #BE7759",
"v. c #BF755A",
"b. c #BF7858",
"n. c #BE7958",
"m. c #BF7A59",
"M. c #BF785A",
"N. c #BE795A",
"B. c #C1775C",
"V. c #C47B58",
"C. c #C67B5C",
"Z. c #C67D5C",
"A. c #C77C5D",
/* pixels */
"q 8 5 < & = = = = = = = = = % < % = = = = = = % = = = = = = = = < - & $ @ , 9 q ",
"8 q e s f i t s k d t s t s s i t t s s t s s s t s s t s t s s t s f m x i w 6 ",
"4 r V D L L D K D K K F F D K F K K K D F K K F L F K K K K K D K Z U T R C i 2 ",
"< f F / e.@./ ] %./ / @./ @./ @./ / ] [ [ ] / / ] [ / ] / / ] [ ] ] %.k.g.8.x . ",
"& k L %.t.:.:.:.:.:.:.:.:.:.:.:.:.:.:.:.:.:.:.:.:.:.:.:.:.:.:.:.;.@.u.c.Z.7.B . ",
"< g L / :.[ o.( / o.%.( %./ o.%.( %.( %.o.%.o.%./ o.%.( %.( o.%./ / q.l.s.6.B . ",
"% t D [ :.%.( o.( %.%.( ( %.%.( %.%.( / / %.o.( %.( / %.%./ / %.] / q.k.n.4.n o ",
"= t D ] :.[ %.[ %./ o.%./ o./ o.o./ %.o.%.( / %.o.%.o.%.( o.%.( / / q.k.n.4.m o ",
"= t F / :./ %.o./ %.o./ %.o./ %.%./ ( %./ o.%./ / %.o./ %.o./ %.] W q.k.n.4.B . ",
"= s D ] :.o.( %.%.( ( %.( %.%.( ( o.%./ %.%.( o.%.( %.( ( %.%.( / / q.k.n.4.m o ",
"= s D [ :.%./ o.o.%.%.o.o./ / o.%.o.%.o.( %.( %.o.( %.%./ o.o./ / ] q.k.n.4.x o ",
"= t D ] :.( %.%./ ( %./ %.( %.%.%./ ( %./ o.%./ / %.o./ %.%.( %./ / q.k.n.4.B o ",
"= s D / ;.@.%.( %.( / %.( %.%.( ( / %.( o./ %.o.%.( o.%.( / %.( / ~ :.k.g.4.m o ",
"= t D ] :.( / o.o.%.o.%./ o./ o.%.o.o.%.%.( ( %.o.%./ ( %.o.o.%./ ] q.k.g.4.n . ",
"= s D [ :.o./ %./ %.o.( %.o./ %.%./ / %./ %.%./ / %./ %.%./ / %./ / q.x.n.4.b o ",
"= s D / :.%.%.( %.( / %.( %.%.( ( o.%.( o.%.( o.%.( o.%.( o.%.( ] Q q.p.m.3.B . ",
"= s D ] :.%./ o./ o.%./ o.%./ o.%.%.( %.%.( %.%.( %.%.( %.%.( %.] / q.k.n.4.m o ",
"= t D [ :.( %.%.%.%.( o./ ( %.%.o./ / o./ o.o./ / o./ o.o./ / o./ W q.k.n.4.B . ",
"= s D / :.o.%.( ( %.( %.%.( %.( ( %.%.( ( %.%.( %.o./ %.( %.%.( / ] q.k.n.4.B o ",
"= t F ] :./ / o./ o.%./ o.%./ o.%./ o.%.%./ o.%.( %.%.( %./ o.%.@./ q.k.n.4.x o ",
"= s D / :.o./ %.%.o./ %.%.o./ %.o./ %.o./ %.o./ / o.%./ o.( %.o./ ~ %.k.g.4.b o ",
"= s F [ :.%.%.( ( %.%.( ( %.%.( ( %.( %.%.( %.( %.%.( o./ %.%./ / ] q.k.g.4.B . ",
"= s F / :.( o.%./ o.o./ o./ / o.%.%.( / o.( %.%.( %.( %.%.( ( %./ / q.k.n.4.n o ",
"= t D ] :.%./ ( %.%.( %.%.( %.%.o./ %.o./ %.o./ / o.%./ o.%./ o.] ^ q.p.m.3.n . ",
"= s D / :./ %.o.%.( %.%.( %.%.( ( %.%.( %./ ( %.%.( / %.( / %.( / W e.x.g.4.n o ",
"= t D @.:.%.%./ / o.o./ / o./ o.%./ o.%.( o.%./ o.%.o.%.%.o.o.%.] ~ q.i.n.4.n . ",
"= s D / :.( ( %.( %.%.( %.o./ %.o./ o./ %.o.%.o./ %.o.( %./ / %./ / q.k.n.4.B o ",
"= s D / :.%./ o.%./ o.%.( %.%.( ( %.%.( %./ ( %.%.( / %.( o.%.( ] / q.k.n.4.B o ",
"= t D / :.o./ %./ %.( / o.%./ o.%.%.( %./ %.( / o.%./ o.%.%.( %.] W q.k.g.4.B . ",
"= k D ] :.%.%.( o.%.%.o./ ( %.%.o./ / o.o.%.%.o./ ( %.%.o./ / o./ / q.k.n.4.b o ",
"= s D / :.o.o./ %.( ( %.%.( %.( ( %.%.( %.( ( %.%.( %.( ( %.%.( / ] q.x.n.4.B . ",
"= s F / :.%.( %./ o.%./ o.%./ o.%./ o.%./ o.%./ o.%./ o.%./ o.%./ / q.x.d.4.m . ",
"- t D [ ;.@./ / ] / / ] [ / ] / [ ] / / @./ ] / / / @./ / ] [ / / Q +.k.n.4.B . ",
"< t Z ` [ / ] W ~ / W / ] W ~ / W / ] W W ] ~ / ] W W ] W / ] W W E o.i.n.4.B $ ",
"& g Y q.u.e.q.q.:.q.+.+.+.+.:.q.q.+.q.e.+.+.+.+.+.+.+.+.q.+.o.q.o.o.u.i.n.4.B . ",
"$ l R i.B.x.k.p.k.k.k.k.k.k.k.k.k.x.i.x.k.k.k.k.k.k.k.k.k.k.k.x.k.k.p.Z.V.7.m @ ",
"$ m <.n.V.B.m.g.n.d.g.g.g.g.n.n.g.g.g.d.n.n.g.g.n.n.g.g.g.d.g.g.g.g.c.Z.g.1.z . ",
"2 g C 4.0.4.4.4.4.4.4.4.4.4.4.4.4.4.3.4.4.3.4.4.4.4.4.4.4.4.4.4.6.6.6.8.1.C i 2 ",
"9 q i m B m B b B B B b B m x B m n m B x B B m B B m n B B B m m m m m b i q 8 ",
"q 8 1 . o o . o o o . o . o o o o . o o o o . o o . o . o o . o . $ . . . 2 6 0 "
};
