/* XPM */
static char *Z2hvc3RfdWQ_[] = {
/* columns rows colors chars-per-pixel */
"35 40 138 2 ",
"   c #150F1B",
".  c #150F1D",
"X  c #170F1C",
"o  c #170F1E",
"O  c #160F1F",
"+  c #17111B",
"@  c #16101C",
"#  c #17111D",
"$  c #14101E",
"%  c #16101E",
"&  c #17111F",
"*  c #18121C",
"=  c #19111E",
"-  c #18101F",
";  c #18121E",
":  c #19131F",
">  c #1B151F",
",  c #151120",
"<  c #171020",
"1  c #161220",
"2  c #181121",
"3  c #181220",
"4  c #191321",
"5  c #1A1221",
"6  c #1A1122",
"7  c #191222",
"8  c #1A1323",
"9  c #181520",
"0  c #1A1420",
"q  c #181422",
"w  c #1A1422",
"e  c #1B1523",
"r  c #1C1622",
"t  c #1D1723",
"y  c #1B1424",
"u  c #1D1425",
"i  c #1C1525",
"p  c #1C1624",
"a  c #1D1725",
"s  c #1C1527",
"d  c #1F1627",
"f  c #1E1727",
"g  c #1F1925",
"h  c #1C1827",
"j  c #1E1826",
"k  c #1F1927",
"l  c #1D1628",
"z  c #1E1729",
"x  c #1F1828",
"c  c #1F182A",
"v  c #201827",
"b  c #201929",
"n  c #201A28",
"m  c #211B29",
"M  c #20192B",
"N  c #211A2A",
"B  c #221B2B",
"V  c #201C2B",
"C  c #241E2A",
"Z  c #251F2B",
"A  c #231A2D",
"S  c #221B2D",
"D  c #231C2C",
"F  c #211D2E",
"G  c #231C2E",
"H  c #241D2D",
"J  c #241E2C",
"K  c #241D2F",
"L  c #261D2E",
"P  c #251E2E",
"I  c #261F2F",
"U  c #231B30",
"Y  c #231F30",
"T  c #241C31",
"R  c #261D30",
"E  c #251E30",
"W  c #271E31",
"Q  c #261F31",
"!  c #251D32",
"~  c #261E33",
"^  c #271E33",
"/  c #271F34",
"(  c #23202B",
")  c #27212D",
"_  c #26202E",
"`  c #242031",
"'  c #272030",
"]  c #262230",
"[  c #262231",
"{  c #252132",
"}  c #272032",
"|  c #262431",
" . c #252034",
".. c #282131",
"X. c #282230",
"o. c #282133",
"O. c #292232",
"+. c #282530",
"@. c #2B2533",
"#. c #2D2733",
"$. c #282035",
"%. c #292234",
"&. c #2A2335",
"*. c #292136",
"=. c #2A2237",
"-. c #2B2436",
";. c #2C2537",
":. c #2D2636",
">. c #2C2934",
",. c #2E2834",
"<. c #2E2B36",
"1. c #2F2838",
"2. c #302A34",
"3. c #312B35",
"4. c #312B39",
"5. c #312A3A",
"6. c #302D38",
"7. c #332D39",
"8. c #312E39",
"9. c #342C39",
"0. c #36303E",
"q. c #393341",
"w. c #3A3142",
"e. c #3A3343",
"r. c #3A3440",
"t. c #383443",
"y. c #3C3642",
"u. c #3D3743",
"i. c #3F3D4A",
"p. c #413A4A",
"a. c #463F4F",
"s. c #474352",
"d. c #4B4553",
"f. c #4A4856",
"g. c #544E5C",
"h. c #5D5765",
"j. c #6B6871",
"k. c None",
/* pixels */
"k.k.k.k.k.k.k.k.k.k.k.k.k.$.E E E E E ! $.k.k.k.k.k.k.k.k.k.k.k.k.k.k.",
"k.k.k.k.k.k.k.k.k.k.k.^ 5.E E E E E E E P ..k.k.k.k.k.k.k.k.k.k.k.k.k.",
"k.k.k.k.k.k.k.k.k.k.E E P E E E E E E E E E E k.k.k.k.k.k.k.k.k.k.k.k.",
"k.k.k.k.k.k.k.k.k.^ E E E E E E E E E E E E ..$.k.k.k.k.k.k.k.k.k.k.k.",
"k.k.k.k.k.k.k.k.:.[ P E E E E E E E E E E [ E =.k.k.k.k.k.k.k.k.k.k.k.",
"k.k.k.k.k.k.k.k.$.E P G ! E E E E E E E E E E $.q.k.k.k.k.k.k.k.k.k.k.",
"k.k.k.k.k.k.k.k.$.P E E E E E E ^ E E E E E E E $.k.k.k.k.k.k.k.k.k.k.",
"k.k.k.k.k.k.k.k.E T E E E E E E E E E E E ^ E E ^ s.k.k.k.k.k.k.k.k.k.",
"k.k.k.k.k.k.k.k.[ P E E E E E E E E E E E b l l D $.k.k.k.k.k.k.k.k.k.",
"k.k.k.k.k.k.k.k.^ E P E E E E E E E E E [ e # # p P k.k.k.k.k.k.k.k.k.",
"k.k.k.k.k.k.k.g.^ E E E E E E E E E [ E A 4 < : X A k.k.k.k.k.k.k.k.k.",
"k.k.k.k.k.<.w x E E P E E E ! E E E E b w < 4 < : G k.k.k.k.k.k.k.k.k.",
"k.k.k.k.[ 4 4 X b E E E G E E E E T E 4 4 : < 4 w p.k.k.k.k.k.k.k.k.k.",
"k.k.k.k : 4 < $ b E [ E E E E E E E G 4 # < 4 # e k.k.k.k.k.k.k.k.k.k.",
"k.w w 4 4 # < : # k b G E P E P E b : # 4 4 : < s k.k.k.k.k.k.k.k.k.k.",
"k.C 4 4 4 # e w < # # p P A A D P o : p p p e 4 P ../ =.E p.q.h.k.k.k.",
"w w w 4 4 : G x < 9 < < # # < # # 4 # A P E E E E E Y ..k.k.k.k.k.k.k.",
"< < < < # G k # < # w w # 4 < 4 w w s w 4 A P E Y E [ k.k.k.k.k.k.k.k.",
"# < < # G _ l < w # < 4 4 < 4 e [ E G E E p # b E v o k ! ..f.k.k.k.k.",
"< > < # A [ p # w < 4 # < : p [ E E E P E $.p # A G v # 4 p [ ! u.k.k.",
": 4 # : G [ k # < 4 < w 4 < 4 < < 4 4 4 # A ! k o b E A < # e [ P q.k.",
"k._ < # G E k o 9 < w # # 4 w E P G E P e < 4 b b < b E D o 4 e  .E 5.",
"k.w 4 # G [ k # < 4 < w < p G w E ! E E Y w # 4 w < 4 k ! x o y.k.k.$.",
"k.k.<.< < G k # w < 9 # 4 4 w 4 e e E P E E e 4 # w < A E E A u.k.k.k.",
"k.k.7.: # G E p < < 9 4 < w 4 < 4 # e P E E E p < < w 9 x [ E d.k.k.k.",
"k.k.k 4 4 < T [ p o < < 9 < 4 4 4 A # p E E P p # 4 < # k G E ;.k.k.k.",
"k.k.k.9.# o e p b P p # < w w w 4 p P # p p T P e # < < l E E E E k.k.",
"k.k.k.2.e : : : p b p 4 w _ k.k.4 < l b 4 # t Y b < w # w A E ! E ;.k.",
"k.k.k.k.k.7.p s w 4 w > @.k.k.k.4 < : E e < o G p 4 O 4 4 4 A [ E @.k.",
"k.k.k.k.k.k.k.k.k.k.k.k.k.k.k.k.< 4 < P e # # x P w 4 : p l 4 b E P  .",
"k.k.k.k.k.k.k.k.k.k.k.k.k.k.k.p w < < b 4 4 : b E x # 4 l ..p 4 E E E ",
"k.k.k.k.k.k.k.k.k.k.k.k.k.e w w w e w < < : # l E b 4 4 k.k.P w [ E E ",
"k.k.k.k.k.k.k.k.k.k.k.k.k.p p k.k.k.k.4 4 < < # k h 9 < k.k.[ w D [ E ",
"k.k.k.k.k.k.k.k.k.k.k.k.w k.k.k.k.k.k.k.k.k.# w # < 4 | k.k.E k.< _ k.",
"k.k.k.k.k.k.k.k.k.k.k.k.k.k.k.k.k.k.k.k.k.k.< < : w ( k.k.k.s.k.t _ k.",
"k.k.k.k.k.k.k.k.k.k.k.k.k.k.k.k.k.e 2.0.w > w 4 4 b k.k.k.k.j.k.2.P k.",
"k.k.k.k.k.k.k.k.k.k.k.k.k.k.< ..| y.k.k.y.4 : <.| k.k.k.k.k.k.k.k.w k.",
"k.k.k.k.k.k.k.k.k.k.k.k.k.k.k.k.k.k.k.k.7._ t k.k.k.k.k.k.k.k.k.k.7.k.",
"k.k.k.k.k.k.k.k.k.k.k.k.k.k.k.k.k.k.k.:.< k.k.k.k.k.k.k.k.k.k.k.k.k.k.",
"k.k.k.k.k.k.k.k.k.k.k.k.k.k.k.k.k.k.4 k.k.k.k.k.k.k.k.k.k.k.k.k.k.k.k."
};
