/* XPM */
static char *cmlnaHQ_[] = {
/* columns rows colors chars-per-pixel */
"17 40 200 2 ",
"   c #000002",
".  c #00000B",
"X  c #010212",
"o  c #010C15",
"O  c #031114",
"+  c #031519",
"@  c #0A1416",
"#  c #141619",
"$  c #1C1A1A",
"%  c #181816",
"&  c #370000",
"*  c #2C1D1A",
"=  c #281918",
"-  c #301C1B",
";  c #2D221C",
":  c #3A211C",
">  c #162329",
",  c #3D2A21",
"<  c #3F2621",
"1  c #243137",
"2  c #373638",
"3  c #4B1814",
"4  c #531A13",
"5  c #48251E",
"6  c #55291E",
"7  c #4B2D22",
"8  c #452A21",
"9  c #532E22",
"0  c #4F3125",
"q  c #533326",
"w  c #5E3B2C",
"e  c #573629",
"r  c #613225",
"t  c #643B2B",
"y  c #6D3B29",
"u  c #723C2A",
"i  c #7B3B2A",
"p  c #773527",
"a  c #584D39",
"s  c #6F422F",
"d  c #64412E",
"f  c #71412E",
"g  c #7B432F",
"h  c #6A5222",
"j  c #6E4533",
"k  c #744532",
"l  c #7C4B35",
"z  c #794732",
"x  c #7B513B",
"c  c #373E44",
"v  c #42464F",
"b  c #635B59",
"n  c #6D5A60",
"m  c #65656F",
"M  c #6D6D75",
"N  c #697274",
"B  c #757374",
"V  c #7D7B7C",
"C  c #833D2B",
"Z  c #84432E",
"A  c #844C35",
"S  c #854D38",
"D  c #894F39",
"F  c #8C4E37",
"G  c #914F37",
"H  c #885137",
"J  c #83523A",
"K  c #8B523A",
"L  c #90543B",
"P  c #955A3E",
"I  c #9A593D",
"U  c #B15F37",
"Y  c #85643B",
"T  c #8B5443",
"R  c #8E5941",
"E  c #9B5D41",
"W  c #925940",
"Q  c #865F50",
"!  c #A05F43",
"~  c #886B4D",
"^  c #966346",
"/  c #9B6245",
"(  c #99684C",
")  c #966A58",
"_  c #A16043",
"`  c #A96546",
"'  c #AD6749",
"]  c #A16C4D",
"[  c #AB6C4C",
"{  c #A16448",
"}  c #B16C4B",
"|  c #B86E4B",
" . c #A97654",
".. c #B47352",
"X. c #B97553",
"o. c #BA7A57",
"O. c #B2745A",
"+. c #B17E59",
"@. c #9C7160",
"#. c #817672",
"$. c #9A7E71",
"%. c #8A6763",
"&. c #AD7F6E",
"*. c #A77665",
"=. c #AF7E77",
"-. c #C0704D",
";. c #C47C57",
":. c #C97C56",
">. c #C47D59",
",. c #C77B56",
"<. c #BE825E",
"1. c #AA8B5C",
"2. c #BC8B65",
"3. c #BF986D",
"4. c #AB8674",
"5. c #AC887C",
"6. c #B48C7C",
"7. c #BB937A",
"8. c #C3805A",
"9. c #CC835C",
"0. c #CE8157",
"q. c #D1855E",
"w. c #D2895F",
"e. c #D48C63",
"r. c #D98E65",
"t. c #D28760",
"y. c #CA976B",
"u. c #C5986E",
"i. c #DA9165",
"p. c #D59369",
"a. c #DC966A",
"s. c #D7986C",
"d. c #DC9A6E",
"f. c #CA9D71",
"g. c #DD9E72",
"h. c #D4987B",
"j. c #C78C66",
"k. c #E09C6F",
"l. c #E49D71",
"z. c #CEA174",
"x. c #CAA97D",
"c. c #C7A679",
"v. c #DCA172",
"b. c #D4AB7D",
"n. c #DBA879",
"m. c #D8B07F",
"M. c #E1A475",
"N. c #E4AB7A",
"B. c #E7AA78",
"V. c #EFB37F",
"C. c #8D8C87",
"Z. c #899394",
"A. c #AF8E85",
"S. c #B29385",
"D. c #B3958A",
"F. c #BA9688",
"G. c #B39C94",
"H. c #ADA08E",
"J. c #BFA597",
"K. c #A2A2A0",
"L. c gray71",
"P. c #D69E85",
"I. c #CBAE82",
"U. c #D9AF87",
"Y. c #CFB384",
"T. c #DBB483",
"R. c #D2B283",
"E. c #DEAE98",
"W. c #E5AF81",
"Q. c #E5B584",
"!. c #EAB684",
"~. c #ECBA86",
"^. c #E2BD89",
"/. c #EEBC8A",
"(. c #E2B886",
"). c #F1BF8B",
"_. c #C7ADA3",
"`. c #D2BFB9",
"'. c #EBC18C",
"]. c #F4C48D",
"[. c #EFC891",
"{. c #F3C591",
"}. c #F4CA94",
"|. c #FACF97",
" X c #F9CE99",
".X c #FBD297",
"XX c #F7D399",
"oX c #FBD29A",
"OX c #FFDA9E",
"+X c #D6C3BC",
"@X c #FFDCA2",
"#X c gray80",
"$X c #D0CECF",
"%X c #DFD0C9",
"&X c #F0DBC8",
"*X c #E3D8D6",
"=X c #F0E3D1",
"-X c #ECE4E2",
";X c #FFFAEA",
":X c None",
/* pixels */
":X:X:X:X*.C Z ;.q.;.Z A 4.:X:X:X:X",
":X:X6.E.U.T.R.Q.~.Q.b.j...A.5.+X:X",
":X&.9.B.|.@XoXoXoXOX@X).e.` E S.:X",
"A } M.|..X.X XoX X|. XoX'.t.[ D.:X",
"i z. X.X X.X X.XXX X.XoX.X}.s.O.@.",
"i b.OX|..X X.X X.X.XoX{.Q.!.d.X.K ",
"i b.OX|.XX XXXoX X].'.y.-.0.w...A ",
"p b.OX X|. X X@X~.8.R i _ e.i...S ",
"A <.V.oX@X{.M.M.o./ T.^.c.` 9...: ",
"t ` i.Q.(.u.U :.8.3.~.@X'.r } ^   ",
"  ] i.e.W k ) ;.~. Xe./.Y.. y j > ",
"  I d.}.Y C.=Xh.N.oX Xf.l @ ; #.:X",
"6 2.{.oXh Z.;XP.N.oX!.]   % + N :X",
"C m.@X.X1.H.&Xh.N.~.;.f   $ 2 K.:X",
"i b.OX XoX~.0.9.w.8.L q o $ $X:X:X",
"H 8.V.oX@X].0.[ / P 8 o c $X:X:X:X",
"J.O.9.b.R.y.[ k q q 3 4 %.:X:X:X:X",
":X_.T T p u f = . e ( +.7.-X:X:X:X",
":X:X:X:Xb # o X 4 ] [..XT.T *X:X:X",
":X:X:X:X$.E [ k & ~ XX@X].| *.`.:X",
":X:X:X:XQ [ r.X.r a Q.XX}.M.X.5.:X",
":X:X:XK * J r.i.^ 7 ;.~.@XXX2.=.:X",
":X_.R K * J r.r.[ g G T.@XoXg...) ",
":XF.E K , d } e.X.g 5 2.N.n.a.X.D ",
":XS.J l , 8 A o.} k   +.d.p.r...A ",
":XV = $ o q D D H g   x.OX Xg.} A ",
":X:X:X:X2 x >.>.[ s   Y.oXM.k.[ * ",
":X:X:X:Xn / r.i...y 6 z.V.:.,.K . ",
":X:X:X:X4.X.t.e...K H [ >.8.W w 1 ",
":X:X:X^ ..0.9.q.t.>.K t , , ; B :X",
":X:X:XA n.{.!.p.e.9.P : X t z G.:X",
":X:X:X/ '.@X.Xd.:...l q t L E 4.%X",
":XD.' q.].oX}.d.' y @ s K K D K K ",
":XD.` 9.{.}.p.r./ . O y K K J K L ",
":XD._ :.n.d.:.r.(   X k K D K l w ",
"-X6...g.s.e.q.r.^   , z K D A w X ",
"l } k. XoX!.:.r.^ o S K K K 8 o % ",
":.W..XOX@XoX].l.E   0 q q q * + $ ",
"[ u.I.c.c.x.x.1.z X o v M m N B B ",
".               o $ $ L.:X:X:X:X:X"
};
