/* XPM */
static char *cmlnaHQ_[] = {
/* columns rows colors chars-per-pixel */
"17 40 200 2 ",
"   c #000002",
".  c #00000B",
"X  c #010212",
"o  c #010C15",
"O  c #031114",
"+  c #031519",
"@  c #0A1416",
"#  c #141619",
"$  c #1C1A1A",
"%  c #181816",
"&  c #370000",
"*  c #2C1D1A",
"=  c #281918",
"-  c #301C1B",
";  c #2D221C",
":  c #3A211C",
">  c #162329",
",  c #3D2A21",
"<  c #3F2621",
"1  c #243137",
"2  c #373638",
"3  c #4B1814",
"4  c #531A13",
"5  c #48251E",
"6  c #55291E",
"7  c #4B2D22",
"8  c #452A21",
"9  c #532E22",
"0  c #4F3125",
"q  c #533326",
"w  c #5E3B2C",
"e  c #573629",
"r  c #613225",
"t  c #643B2B",
"y  c #6D3B29",
"u  c #723C2A",
"i  c #7B3B2A",
"p  c #773527",
"a  c #584D39",
"s  c #6F422F",
"d  c #64412E",
"f  c #71412E",
"g  c #7B432F",
"h  c #6A5222",
"j  c #6E4533",
"k  c #744532",
"l  c #7C4B35",
"z  c #794732",
"x  c #7B513B",
"c  c #373E44",
"v  c #42464F",
"b  c #635B59",
"n  c #6D5A60",
"m  c #65656F",
"M  c #6D6D75",
"N  c #697274",
"B  c #757374",
"V  c #7D7B7C",
"C  c #833D2B",
"Z  c #84432E",
"A  c #844C35",
"S  c #854D38",
"D  c #894F39",
"F  c #8C4E37",
"G  c #914F37",
"H  c #885137",
"J  c #83523A",
"K  c #8B523A",
"L  c #90543B",
"P  c #955A3E",
"I  c #9A593D",
"U  c #B15F37",
"Y  c #85643B",
"T  c #8B5443",
"R  c #8E5941",
"E  c #9B5D41",
"W  c #925940",
"Q  c #865F50",
"!  c #A05F43",
"~  c #886B4D",
"^  c #966346",
"/  c #9B6245",
"(  c #99684C",
")  c #966A58",
"_  c #A16043",
"`  c #A96546",
"'  c #AD6749",
"]  c #A16C4D",
"[  c #AB6C4C",
"{  c #A16448",
"}  c #B16C4B",
"|  c #B86E4B",
" . c #A97654",
".. c #B47352",
"X. c #B97553",
"o. c #BA7A57",
"O. c #B2745A",
"+. c #B17E59",
"@. c #9C7160",
"#. c #817672",
"$. c #9A7E71",
"%. c #8A6763",
"&. c #AD7F6E",
"*. c #A77665",
"=. c #AF7E77",
"-. c #C0704D",
";. c #C47C57",
":. c #C97C56",
">. c #C47D59",
",. c #C77B56",
"<. c #BE825E",
"1. c #AA8B5C",
"2. c #BC8B65",
"3. c #BF986D",
"4. c #AB8674",
"5. c #AC887C",
"6. c #B48C7C",
"7. c #BB937A",
"8. c #C3805A",
"9. c #CC835C",
"0. c #CE8157",
"q. c #D1855E",
"w. c #D2895F",
"e. c #D48C63",
"r. c #D98E65",
"t. c #D28760",
"y. c #CA976B",
"u. c #C5986E",
"i. c #DA9165",
"p. c #D59369",
"a. c #DC966A",
"s. c #D7986C",
"d. c #DC9A6E",
"f. c #CA9D71",
"g. c #DD9E72",
"h. c #D4987B",
"j. c #C78C66",
"k. c #E09C6F",
"l. c #E49D71",
"z. c #CEA174",
"x. c #CAA97D",
"c. c #C7A679",
"v. c #DCA172",
"b. c #D4AB7D",
"n. c #DBA879",
"m. c #D8B07F",
"M. c #E1A475",
"N. c #E4AB7A",
"B. c #E7AA78",
"V. c #EFB37F",
"C. c #8D8C87",
"Z. c #899394",
"A. c #AF8E85",
"S. c #B29385",
"D. c #B3958A",
"F. c #BA9688",
"G. c #B39C94",
"H. c #ADA08E",
"J. c #BFA597",
"K. c #A2A2A0",
"L. c gray71",
"P. c #D69E85",
"I. c #CBAE82",
"U. c #D9AF87",
"Y. c #CFB384",
"T. c #DBB483",
"R. c #D2B283",
"E. c #DEAE98",
"W. c #E5AF81",
"Q. c #E5B584",
"!. c #EAB684",
"~. c #ECBA86",
"^. c #E2BD89",
"/. c #EEBC8A",
"(. c #E2B886",
"). c #F1BF8B",
"_. c #C7ADA3",
"`. c #D2BFB9",
"'. c #EBC18C",
"]. c #F4C48D",
"[. c #EFC891",
"{. c #F3C591",
"}. c #F4CA94",
"|. c #FACF97",
" X c #F9CE99",
".X c #FBD297",
"XX c #F7D399",
"oX c #FBD29A",
"OX c #FFDA9E",
"+X c #D6C3BC",
"@X c #FFDCA2",
"#X c gray80",
"$X c #D0CECF",
"%X c #DFD0C9",
"&X c #F0DBC8",
"*X c #E3D8D6",
"=X c #F0E3D1",
"-X c #ECE4E2",
";X c #FFFAEA",
":X c None",
/* pixels */
":X:X:X:X4.Z Z ;.q.;.Z C *.:X:X:X:X",
":X+X5.S.O.j.m.Q.!.Q.b.T.U.E.6.:X:X",
":XS.! ` p.).OXOXoXOXoX@X XB.>.&.:X",
":XD.` t./.oXXX XoX XoX.XoXoXM.| A ",
") O.s.}..XOX X X|.XX X XXX X|.f.Z ",
"K X.g.!.Q./.OXXXoX|.|.XX|.|.OXb.i ",
"A X.e.:.-.y.'.'.}.oXXX|.|..XOXb.i ",
"A ..r.e.! g P 8.!.OXoXXX X.XOXb.p ",
": ..t.[ z.^.T./ o.l.v.{.OXXX~.<.A ",
"  / } e ^.@X~.3.2.,.U y.(.Q.i.` t ",
"> k u . Y./.e.|.!.;.) k I e.r.]   ",
":X#.; O l f..XXXN.P.=XC.Y }.k.I   ",
":XN + #   ] !.OXN.P.;XZ.h oX].2.6 ",
":XK.2 $   k >.~.M.h.&XH.1..X@Xb.C ",
":X:X#X$ o 7 P 8.w.q.9.~.OX XoXb.C ",
":X:X:X$Xc o 8 P _ ' 0.].@XOX!.>.F ",
":X:X:X:X%.4 3 7 9 k } u.R.b.9.O.J.",
":X:X:X-X7.+.] e . = f u p T T _.:X",
":X:X*XR R..X[. .3 X o # b :X:X:X:X",
":X+X*.| ].@XXX~ & z [ E $.:X:X:X:X",
":X5...M.}. XQ.a r X.r.[ Q :X:X:X:X",
":X=.2.XX@X/.-.7 ^ r.e.J - K :X:X:X",
") ..g.oX@XT.G k [ e.p.J = A L _.:X",
"D X.a.n.N.j.5 g o.e...d 5 K / F.:X",
"A | r.s.d.+.  f [ o.D 5 , z H D.:X",
"A ' v. XOXx.  g K H K e o $ $ V :X",
"* [ a.d..XY.  f ' >.8.x 2 :X:X:X:X",
". R >.q.V.f.6 u ..i.i./ n :X:X:X:X",
"1 w W 8.>.[ A K ..t.t.X.&.:X:X:X:X",
":XB ; , , t L >.t.q.9.9.o.^ :X:X:X",
":XG.z t . : P q.e.p.Q.{.n.l :X:X:X",
"%X4.I K d q l ..;.s.OX@X/._ :X:X:X",
"K H K H L s @ y ' g.}.OX/.9.[ S.:X",
"P K J D K s O X / e.p.}.}.9.` D.:X",
"t l K D K s X   ^ r.:.v.v.:.! D.:X",
"X w A D K z 8   ^ r.t.e.s.g...6.-X",
"% o 8 J K K A o ^ r.:.!.OX}.g.} A ",
"$ + * q q q 0 . / l.].OX@XOX|.W.8.",
"B B N m M v O . z +.x.x.c.c.I.u.' ",
":X:X:X:X:XL.$ $ o               . "
};
