/* XPM */
static char *bW92aW5nX3VwXzE_[] = {
/* columns rows colors chars-per-pixel */
"19 40 180 2 ",
"   c #000000",
".  c #00000A",
"X  c #020212",
"o  c #010C14",
"O  c #0A0919",
"+  c #001114",
"@  c #0C161A",
"#  c #021118",
"$  c #191919",
"%  c #13181A",
"&  c #251E1C",
"*  c #281E1C",
"=  c #38241D",
"-  c #1A2A2A",
";  c #242323",
":  c #262827",
">  c #2C2A2F",
",  c #2C2E39",
"<  c #263437",
"1  c #401617",
"2  c #43241F",
"3  c #702B1E",
"4  c #452D24",
"5  c #482D22",
"6  c #533126",
"7  c #593125",
"8  c #5C3A2C",
"9  c #583529",
"0  c #423C3C",
"q  c #6E2F20",
"w  c #613729",
"e  c #633C2C",
"r  c #6F3122",
"t  c #7C3C29",
"y  c #783424",
"u  c #603637",
"i  c #53443F",
"p  c #6F402E",
"a  c #75432F",
"s  c #7D432F",
"d  c #664436",
"f  c #734531",
"g  c #7C4532",
"h  c #7D4A35",
"j  c #7B513B",
"k  c #383C45",
"l  c gray27",
"z  c #4E4E5A",
"x  c #535453",
"c  c #694E45",
"v  c #716059",
"b  c #5B5D64",
"n  c #636466",
"m  c #824028",
"M  c #834632",
"N  c #834C34",
"B  c #894B34",
"V  c #895037",
"C  c #8C543B",
"Z  c #92563B",
"A  c #95593E",
"S  c #9E583E",
"D  c #8D5242",
"F  c #8C5A49",
"G  c #8A5B41",
"H  c #965C41",
"J  c #9C5E43",
"K  c #925B49",
"L  c #A15E42",
"P  c #9C6345",
"I  c #956653",
"U  c #A26144",
"Y  c #AE6847",
"T  c #A36649",
"R  c #AD6749",
"E  c #A46B4B",
"W  c #AB6B4B",
"Q  c #AB6647",
"!  c #B36B4C",
"~  c #AC704E",
"^  c #B2724F",
"/  c #AC6F50",
"(  c #A57757",
")  c #B37452",
"_  c #BA7452",
"`  c #B07B59",
"'  c #B87955",
"]  c #946261",
"[  c #927C6F",
"{  c #A47F6F",
"}  c #AC7A73",
"|  c #C37B55",
" . c #CA7C56",
".. c #C17C59",
"X. c #A8805C",
"o. c #BF845E",
"O. c #8B817F",
"+. c #BD8C64",
"@. c #B88865",
"#. c #BC9169",
"$. c #AC897B",
"%. c #AB877B",
"&. c #C4815B",
"*. c #CD835B",
"=. c #D2865E",
"-. c #D0895E",
";. c #D98A5F",
":. c #C48E67",
">. c #CB8D64",
",. c #D38B62",
"<. c #DB8E64",
"1. c #D08661",
"2. c #C8956C",
"3. c #D59166",
"4. c #D99066",
"5. c #D6936A",
"6. c #DC9A6D",
"7. c #DB9469",
"8. c #C79E72",
"9. c #D39B74",
"0. c #DC9E71",
"q. c #DB9D78",
"w. c #E19267",
"e. c #ED9E73",
"r. c #CCA275",
"t. c #C8A87C",
"y. c #DDA274",
"u. c #D3AC7E",
"i. c #D6B07F",
"p. c #E1A175",
"a. c #E2AC7C",
"s. c #E5B17F",
"d. c #8A8E93",
"f. c #949C9E",
"g. c #B18F83",
"h. c #BE9A80",
"j. c #B2B1AF",
"k. c gray72",
"l. c #B7B8BC",
"z. c #C29D97",
"x. c #DBA283",
"c. c #D8AE80",
"v. c #D6AD81",
"b. c #DCB382",
"n. c #C4A092",
"m. c #E4B381",
"M. c #EBB583",
"N. c #ECBC89",
"B. c #E5BD8A",
"V. c #F3BA84",
"C. c #F0BC8A",
"Z. c #D0B8AC",
"A. c #D1BAB4",
"S. c #EFC18D",
"D. c #F2C48E",
"F. c #F3C691",
"G. c #F4CA93",
"H. c #F8CF97",
"J. c #F7CE98",
"K. c #F8CF99",
"L. c #F7D397",
"P. c #FAD297",
"I. c #F7D199",
"U. c #FAD29A",
"Y. c #FED89E",
"T. c #D6C5BE",
"R. c #FFDBA1",
"E. c #FCD7A0",
"W. c #CCCDCE",
"Q. c gray77",
"!. c LightGray",
"~. c #EAD7C7",
"^. c #F1DCCE",
"/. c #EFE1D8",
"(. c #F5E8DF",
"). c #F0E0D1",
"_. c #EEE9E6",
"`. c #E2E2E2",
"'. c #F3ECE5",
"]. c None",
/* pixels */
"].].].].].].(.,.,.R r t t M I ].].].].",
"].].].].].).x.*.m.m.u.u.c.5.! $._.].].",
"].].].].'.x.e.y.G.Y.Y.U.R.F.6.) n._.].",
"].].].].9.;.0.P.U.H.U.K.I.U.G.3.! %.].",
"].].].].q.<.e.I.U.K.K.U.L.U.G.3.Y $.].",
"].].].].@. .y.K.P.H.P.H.U.U.F.3.W g.].",
"].].]./.F ! q.U.U.H.K.U.I.U.F.>.R %.].",
"].].).*.C R p.U.U.K.U.I.U.U.G.,.U h C ",
"].].^.w.A ! 3.p.G.Y.U.U.P.U.H.3.J J ..",
"].].~.| C ) ,.*.s.N.S.U.U.G.m.<.J W 4.",
"].].T.N N ) ,.-.*. .5.G.U.s. .*.A P ,.",
"].].j.4 N C E ,.,.-.>.3.5.5.*.P 9 e P ",
"].].`.d.d g Z W *.-.1.*.,.| T w $ i A.",
"].].].].> 6 a g | -.1.-.*.T 7 o - f.].",
"].].].]., # 5 C &.,.,.-.T w o $ k.].].",
"].].!., ' &.:.S.G.p. .*. .A & W.].].].",
"].Q.[ E ;.,.p.U.Y.D.a.a.M.+.= z.].].].",
"].x G <.,.*.y.P.U.U.U.U.Y.b.J ` Z.].].",
"].n j ,.-. .y.P.U.K.K.K.P.K.I.H.@.} ].",
"b ( &.,.<.' ) a.G.U.U.U.m.N.Y.Y.:.] ].",
". ) 4.' ..C g *.D.U.I.N.&.-.D.U.i.#.W.",
". / | h N 2 d <.D.U.D.1.Z L 7.G.R.b.m ",
"o N P V 4 7 J ,.F.U.D.*.A U 6.I.R.v.t ",
"f.c e e + 7 J *.F.U.J.M.I U 3.a.N.2.h ",
"].d., k O f ) q.D.U.U.U.X.U ,. .<.:.m ",
"].].].].: L p.K.U.K.U.U.` L ;.=.D.b.m ",
"].].].].: S p.U.R.N.0.0.:.| w.D.R.b.y ",
"].].].].u :.M.m.V.>.Y -.<...( u.b.2.B ",
"].].].].D m.H.,.<.~ V &.,.P   r N K I ",
"].].].].D i.U.H.P.8.t C C C h = ].].].",
"].].].].C b.R.U.R.r.y V C g 6 % ].].].",
"].].].].F 9.G.L.R.r.3 a h 9 O x ].].].",
"].].]._.I ! 9.K.U.r.q % @ @ l ].].].].",
"].].W.< a ) <.<.3.,.) & ].].].].].].].",
"].l.v f W | 3.s.m.p...* ].].].].].].].",
"].z 9 A *.5.a.U.Y.M._ & ].].].].].].].",
"].b 6 C | M.U.U.Y.m._ & ].].].].].].].",
"].].O.8 J >.V.U.R.V.| & ].].].].].].].",
"].].].b 8 V ` t.t.#.H & ].].].].].].].",
"].].].].< X         . $ ].].].].].].]."
};
