/* XPM */
static char *d2FsbA__[] = {
/* columns rows colors chars-per-pixel */
"40 40 130 2 ",
"   c #011A27",
".  c #011D29",
"X  c #042127",
"o  c #062428",
"O  c #0B2529",
"+  c #14252C",
"@  c #1D272D",
"#  c #1C292A",
"$  c #23272E",
"%  c #24292D",
"&  c #2C2B2D",
"*  c #322C2E",
"=  c #392F2E",
"-  c #35302D",
";  c #3A302E",
":  c #232730",
">  c #262930",
",  c #2C2A30",
"<  c #362C31",
"1  c #3B2E32",
"2  c #3C3030",
"3  c #40322F",
"4  c #422F35",
"5  c #442F39",
"6  c #4B2F3B",
"7  c #453135",
"8  c #4A3434",
"9  c #4F3A34",
"0  c #473038",
"q  c #4C313B",
"w  c #513634",
"e  c #543935",
"r  c #53333D",
"t  c #5A343F",
"y  c #563939",
"u  c #5C3B3A",
"i  c #633C3C",
"p  c #66403C",
"a  c #6B423E",
"s  c #6E483F",
"d  c #563242",
"f  c #5C3543",
"g  c #5F3946",
"h  c #613744",
"j  c #643944",
"k  c #693C44",
"l  c #623748",
"z  c #6E4242",
"x  c #744444",
"c  c #784647",
"v  c #774C45",
"b  c #7C4A45",
"n  c #774449",
"m  c #7B464B",
"M  c #7D4A49",
"N  c #804B47",
"B  c #83474C",
"V  c #844B4B",
"C  c #8B4E4E",
"Z  c #835544",
"A  c #8C5447",
"S  c #865942",
"D  c #8A5B45",
"F  c #8C514B",
"G  c #905C46",
"H  c #93554D",
"J  c #945B4C",
"K  c #98594F",
"L  c #8E5150",
"P  c #955451",
"I  c #9B5752",
"U  c #9D5A52",
"Y  c #A25C55",
"T  c #96604B",
"R  c #9A6349",
"E  c #A56153",
"W  c #AA6455",
"Q  c #AD6A55",
"!  c #AB6955",
"~  c #B06D53",
"^  c #B06957",
"/  c #B56A57",
"(  c #B36D54",
")  c #B56F55",
"_  c #B46C56",
"`  c #B26958",
"'  c #B46B58",
"]  c #B56C59",
"[  c #BA6F58",
"{  c #B27155",
"}  c #B67454",
"|  c #B77457",
" . c #B77656",
".. c #BA7357",
"X. c #B87654",
"o. c #BB7655",
"O. c #B87656",
"+. c #B97757",
"@. c #BB7657",
"#. c #BC7557",
"$. c #BC7756",
"%. c #BA7856",
"&. c #BE7A57",
"*. c #B57458",
"=. c #B87058",
"-. c #B97359",
";. c #BB735A",
":. c #BB7458",
">. c #B97659",
",. c #BB7659",
"<. c #BD7658",
"1. c #BC7758",
"2. c #BE7759",
"3. c #BE775B",
"4. c #BF785A",
"5. c #C07757",
"6. c #C07659",
"7. c #C1775A",
"8. c #C17858",
"9. c #C27959",
"0. c #C0795B",
"q. c #C37A5A",
"w. c #C47B58",
"e. c #C47B5A",
"r. c #C27C58",
"t. c #C17D5A",
"y. c #C67C59",
"u. c #C47E5C",
"i. c #CA7E5A",
"p. c #CA825C",
/* pixels */
"  . X o O o o o X o O o X O X O # % +     X o O o o o O o O O o o o O # % O     ",
"e 9 8 8 7 8 7 8 8 4 8 7 3 8 8 8 ; ; 7 w 9 9 7 7 8 7 7 8 7 3 8 7 8 8 8 4 3 3 9 e ",
"R T A N M M b Z N N m N N N N N k i v T J A b N b N N N N N b N N N b k j b T R ",
"t.@.! U U U U U Y U Y U U Y Y U C n J } 6.! U I E K Y U Y Y K Y Y Y U B c K  .r.",
"i.w.) Y Y Y Y Y Y Y Y Y Y Y Y Y C m U 4.t.' Y Y Y Y Y Y Y Y Y Y Y Y Y C M E w.p.",
"u.8.Q U I I U I U U U Y Y K Y I B m J ,.0.W U I I U U U K Y Y U U Y I B m K #.u.",
",.-.^ W E W W W W W W W E W W W P m P ~ ,.' W E W W W W W W E W W W E F m I { #.",
"W ^ [ 6.6.#.3.3.#.#.3.<.5.8.9...U m C E ] -.3.3.3.3.#.3.#.9.#.#.4.9.=.I m L W ^ ",
"P U ! X.&.@.@. . . .@. .@.@.&.} J m m L Y ~ &.%.@. . . . .@.} %.#.&.{ J n B I I ",
"i x s S S S S S S D D D S S S S s r w i x Z D D S S Z Z S S S S D D A a w y i a ",
"* * ; ; ; < < - * = 2 ; - = - * * & & & * ; ; - < = * = = * - * = = = * , & * * ",
"p i i i u i u k u = . & y i u j i a a a u & . 1 u i i i u i i i w +   9 i x i p ",
"J K K K I K U U P i * u F Y I K K I K K F u & p K U K K I K K U N 8 1 b I U K I ",
"Y K I I I I U U I a * u L Y U I U U U Y F u < z P U U I I I U U N 9 1 b U U I U ",
"m m m c c m m m n y * r x m m m n n m B z q < y n m m m m m m B k 7 1 i m m n m ",
"t f d f f d f f d 4 * 1 d f f f f f f f d 1 * 4 f g d f f d f f q < = 6 f f f d ",
"f d d d d f f f d 5 * 4 d f d f f d f f r 1 < 5 d g f d f d h f d < < 6 d g d f ",
"h h h h f h h h f 5 * 4 t h h h f h g h f 1 & q f h h l g f h h r 1 < q f g g g ",
"6 6 6 6 6 r q r 6 < $ < 5 r 6 6 r r r q 5 * % < 6 r 6 q 6 r r d 5 , & 1 6 r 6 6 ",
"> > $ > < 1 1 * $ + O + $ : $ & < 1 < , $ + O @ $ % : % 1 < < : @ O + @ % > > % ",
"w w e e 3 & * 3 e e w e w w e 8 1 & ; 8 e y w e 9 e e 8 = & = w e e w w w w 9 w ",
"C C C A z ; 8 v H F F F C F H A i & w N F F F F F A H M y & i V H A C H F F F F ",
"Y Y Y Y b 2 w V Y Y Y U Y Y Y Y x & u H Y Y Y Y U Y Y I i * a K Y Y Y Y U U Y Y ",
"C C H C z ; 8 c H C C C C C L B i * y N H L C C L F L N y = i V H C C C C C C C ",
"j j k h r = 1 r j j j j j j k l q * 4 f k l j j h j l i 4 * 6 h k j j j j j j j ",
"d t d d 6 * 1 6 d f f d d d d d 4 * 1 r d d f d d f f d 1 * 5 r d f d d d d d d ",
"f h h h 6 = 1 r h h h f h h l i 5 * 4 d l h h h g h l f 1 * 5 f j h f g h f f g ",
"d f f t q * 1 6 t f f r d t f r 0 & 1 r f f r t r d f r 4 & 4 f f r t d f f f t ",
"4 1 1 4 < & & 1 0 0 7 7 7 4 1 7 = & = 1 4 0 4 4 4 4 4 1 & , < 1 0 0 7 7 4 4 4 4 ",
"* * * & * < < & & & & * , & < & & * * & & & * * * & * & < * * * & < , & & * * & ",
"5 0 7 0 0 q 7 * & 1 0 0 0 0 7 7 0 6 1 * & 1 0 q 0 4 4 q 0 0 1 , * 2 0 0 4 q 4 0 ",
"f f f f f f r 1 * 0 f f f f f f f f q = = q f f f f f f i f 0 * 1 r f f f f f f ",
"h h j h j h t 2 * q f l j h h h h h r < = r h l h h h h h h q * 1 f l l h j h j ",
"f h h f l h d 1 < q h h h h h f h h r = < q h h h f h h h h q * 1 r j f h h f h ",
"f h f f f l t 4 * q f h f h f h j f r < 1 r f h f f f f h t q & 1 t j g f f f h ",
"h f f h h h d 1 * q g h h f h h l h r < < r h h h h h j h h q = 4 r h f h f h h ",
"g f f g f h r 1 = 6 f h h f f h g f q 1 1 r g h f t h f l f 0 * 1 t g g f f f f ",
"q q q 6 r q 5 = * 4 6 6 r q q r r r 4 < * 4 6 6 q r 6 q q r 4 * 1 0 r q 6 q 6 6 ",
"= = < = < < < < & * * = = < = = < < < * * < = = 1 < = = 1 = * & & 1 1 = = = 1 = ",
"& & & & & & & & * & & & > & > & & & & & & & & & & & & % & % & * & & & % & & > & "
};
